<svg id="svg" version="1.1" xmlns="http://www.w3.org/2000/svg" xmlns:xlink="http://www.w3.org/1999/xlink" width="400" height="264.93333333333334" viewBox="0, 0, 400,264.93333333333334"><g id="svgg"><path id="path0" d="M95.167 37.167 L 95.167 74.333 50.250 74.333 L 5.333 74.333 5.314 73.708 C 5.304 73.365,5.305 72.971,5.318 72.833 C 5.337 72.621,4.943 72.583,2.670 72.583 L 0.000 72.583 0.000 168.708 L 0.000 264.833 80.583 264.833 L 161.167 264.833 161.167 260.542 L 161.167 256.250 218.333 256.292 L 275.500 256.334 275.500 217.334 L 275.500 178.333 313.458 178.333 L 351.417 178.333 351.370 183.583 L 351.324 188.833 372.329 188.833 L 393.333 188.833 393.333 187.764 C 393.333 187.067,393.449 186.425,393.664 185.923 C 393.846 185.498,393.981 185.098,393.963 185.034 C 393.946 184.969,394.059 184.677,394.215 184.384 C 394.372 184.091,394.526 183.716,394.558 183.551 C 394.625 183.206,394.771 182.805,395.101 182.058 C 395.229 181.769,395.333 181.465,395.333 181.381 C 395.333 181.298,395.483 180.919,395.667 180.539 C 395.850 180.160,396.000 179.776,396.000 179.686 C 396.000 179.595,396.087 179.311,396.194 179.053 C 396.300 178.794,396.375 178.527,396.360 178.458 C 396.345 178.390,397.158 178.333,398.167 178.333 L 400.000 178.333 400.000 175.667 L 400.000 173.000 396.667 173.000 L 393.333 173.000 393.333 163.583 L 393.333 154.167 396.667 154.167 L 400.000 154.167 400.000 151.417 L 400.000 148.667 319.584 148.667 L 239.168 148.667 239.126 131.375 L 239.083 114.083 180.208 114.083 L 121.333 114.083 121.333 57.042 L 121.333 0.000 108.250 0.000 L 95.167 0.000 95.167 37.167 M119.333 38.167 L 119.333 74.333 117.583 74.333 L 115.833 74.333 115.836 97.625 C 115.837 110.435,115.894 121.001,115.961 121.103 C 116.037 121.220,116.749 121.294,117.860 121.303 L 119.636 121.316 119.610 120.533 L 119.583 119.750 138.625 119.708 L 157.667 119.665 157.667 127.249 L 157.667 134.833 156.667 134.833 L 155.667 134.833 155.667 144.500 L 155.667 154.167 175.583 154.167 L 195.500 154.167 195.500 155.875 L 195.500 157.583 197.417 157.583 L 199.333 157.583 199.333 156.625 L 199.333 155.667 198.417 155.667 L 197.500 155.667 197.500 148.000 L 197.500 140.333 198.417 140.333 L 199.333 140.333 199.333 139.345 L 199.333 138.357 198.417 138.452 L 197.500 138.547 197.500 129.110 L 197.500 119.673 205.208 119.628 L 212.917 119.583 212.868 122.875 L 212.820 126.167 209.410 126.167 L 206.000 126.167 206.000 127.255 L 206.000 128.344 210.292 128.327 L 214.583 128.311 214.630 130.322 L 214.677 132.333 210.338 132.333 L 206.000 132.333 206.000 133.333 L 206.000 134.333 210.333 134.333 L 214.667 134.333 214.667 136.425 L 214.667 138.518 209.417 138.467 L 204.166 138.417 204.167 139.375 L 204.167 140.333 208.500 140.333 L 212.833 140.333 212.833 148.000 L 212.833 155.667 208.708 155.686 C 206.440 155.697,204.490 155.694,204.375 155.679 C 204.229 155.660,204.167 155.942,204.167 156.618 L 204.167 157.583 215.583 157.583 L 227.000 157.583 227.000 156.625 C 227.000 156.098,226.944 155.676,226.875 155.686 C 226.806 155.697,224.481 155.697,221.708 155.686 L 216.667 155.667 216.667 146.667 L 216.667 137.667 221.842 137.667 L 227.017 137.667 226.980 136.750 L 226.943 135.833 221.763 135.834 L 216.583 135.834 216.635 133.834 L 216.686 131.833 220.909 131.833 C 224.605 131.833,225.144 131.800,225.232 131.570 C 225.377 131.193,225.357 129.663,225.208 129.686 C 225.140 129.697,223.190 129.697,220.875 129.686 L 216.667 129.667 216.667 127.667 L 216.667 125.667 220.792 125.647 C 223.060 125.636,225.010 125.639,225.125 125.654 C 225.272 125.673,225.333 125.383,225.333 124.674 L 225.333 123.667 221.000 123.667 L 216.667 123.667 216.667 121.667 L 216.667 119.667 225.167 119.667 L 233.667 119.667 233.667 127.766 L 233.667 135.866 232.833 135.808 L 232.000 135.750 232.000 136.708 L 232.000 137.667 232.833 137.667 L 233.667 137.667 233.667 146.667 L 233.667 155.667 232.833 155.667 L 232.000 155.667 232.000 156.625 L 232.000 157.583 233.833 157.583 L 235.666 157.583 235.667 155.875 L 235.667 154.167 312.497 154.167 L 389.328 154.167 389.372 163.583 L 389.417 173.000 332.461 173.000 L 275.506 173.000 275.461 168.708 L 275.417 164.417 274.375 164.367 L 273.333 164.317 273.333 168.659 L 273.333 173.000 272.509 173.000 L 271.684 173.000 271.634 173.875 L 271.583 174.750 269.041 174.750 L 266.500 174.750 266.500 175.708 L 266.500 176.667 269.083 176.667 L 271.667 176.667 271.667 181.570 C 271.667 187.234,271.626 187.000,272.601 187.000 L 273.333 187.000 273.333 199.000 L 273.333 211.000 271.667 211.000 L 270.000 211.000 270.000 230.917 L 270.000 250.833 214.667 250.833 L 159.333 250.833 159.333 214.583 L 159.333 178.333 163.667 178.333 L 168.000 178.333 168.000 176.542 L 168.000 174.750 164.214 174.803 C 159.276 174.873,159.333 174.885,159.333 173.826 L 159.333 173.000 156.667 173.000 L 154.000 173.000 154.000 177.330 L 154.000 181.660 150.573 181.705 L 147.146 181.750 147.115 185.083 L 147.083 188.417 132.292 188.459 L 117.500 188.502 117.500 189.501 L 117.500 190.500 135.750 190.500 L 154.000 190.500 154.000 198.167 L 154.000 205.833 136.083 205.854 C 126.229 205.866,118.092 205.894,118.000 205.917 C 117.908 205.940,117.757 205.968,117.665 205.979 C 117.553 205.993,117.511 208.084,117.540 212.125 L 117.583 218.250 118.234 218.303 C 119.696 218.423,119.589 218.858,119.537 213.007 L 119.491 207.833 136.745 207.833 L 154.000 207.833 154.000 233.667 L 154.000 259.500 80.583 259.500 L 7.167 259.500 7.167 234.583 L 7.167 209.667 18.986 209.667 C 25.487 209.667,30.923 209.622,31.065 209.567 C 31.291 209.481,31.323 208.824,31.322 204.359 L 31.321 199.250 32.161 199.200 L 33.000 199.149 33.000 198.158 L 33.000 197.167 32.167 197.167 L 31.333 197.167 31.333 196.333 L 31.333 195.500 30.333 195.500 L 29.333 195.500 29.333 201.583 L 29.333 207.667 18.250 207.667 L 7.167 207.667 7.167 198.250 L 7.167 188.833 19.149 188.833 C 29.921 188.833,31.141 188.807,31.232 188.570 C 31.288 188.425,31.333 187.571,31.333 186.673 L 31.333 185.039 30.333 185.039 L 29.333 185.039 29.333 185.936 L 29.333 186.833 18.252 186.833 L 7.171 186.833 7.127 173.917 L 7.083 161.000 16.458 161.000 L 25.833 161.000 25.833 167.083 L 25.833 173.167 27.583 173.167 L 29.333 173.167 29.333 175.750 L 29.333 178.333 30.331 178.333 L 31.329 178.333 31.329 166.083 L 31.329 153.833 30.335 153.833 L 29.342 153.833 29.296 156.458 L 29.250 159.083 18.208 159.126 L 7.167 159.169 7.167 144.585 L 7.167 130.000 16.500 130.000 L 25.833 130.000 25.833 133.500 L 25.833 137.000 27.583 137.000 L 29.333 137.000 29.333 142.172 L 29.333 147.343 30.328 147.314 L 31.323 147.284 31.327 137.559 L 31.330 127.833 19.248 127.833 L 7.167 127.833 7.166 122.792 L 7.166 117.750 8.519 117.805 C 10.459 117.884,10.667 117.807,10.667 117.010 C 10.667 115.844,10.650 115.833,8.816 115.833 L 7.167 115.833 7.167 111.500 L 7.167 107.167 14.792 107.167 L 22.417 107.166 22.370 111.500 L 22.323 115.833 20.569 115.833 L 18.816 115.833 18.852 116.833 L 18.888 117.833 25.944 117.833 L 33.000 117.833 33.000 116.833 L 33.000 115.833 28.750 115.833 L 24.500 115.833 24.500 96.083 L 24.500 76.333 42.501 76.333 L 60.502 76.333 60.459 91.792 L 60.417 107.250 50.875 107.250 L 41.333 107.250 41.333 111.533 L 41.333 115.815 40.542 115.866 L 39.750 115.917 39.700 116.877 L 39.650 117.838 51.075 117.831 L 62.500 117.824 62.500 116.829 L 62.500 115.833 52.917 115.833 L 43.333 115.833 43.333 112.500 L 43.333 109.167 45.833 109.167 L 48.333 109.167 48.333 110.925 L 48.333 112.683 49.292 112.633 L 50.250 112.583 50.297 110.833 L 50.344 109.083 55.422 109.130 L 60.500 109.176 60.500 110.921 L 60.500 112.667 61.500 112.667 L 62.500 112.667 62.500 108.333 L 62.500 104.000 67.667 104.000 L 72.833 104.000 72.833 103.000 L 72.833 102.000 67.667 102.000 L 62.500 102.000 62.500 89.167 L 62.500 76.333 81.417 76.333 L 100.333 76.333 100.333 89.167 L 100.333 102.000 89.083 102.000 L 77.833 102.000 77.833 103.011 L 77.833 104.021 79.584 103.969 L 81.334 103.917 81.334 111.792 L 81.333 119.667 91.833 119.667 L 102.333 119.667 102.333 118.750 L 102.333 117.833 104.892 117.833 L 107.450 117.833 107.480 116.825 L 107.511 115.817 104.929 115.867 L 102.347 115.917 102.298 115.000 L 102.250 114.083 101.292 114.063 L 100.333 114.042 100.333 115.767 L 100.333 117.492 94.375 117.538 L 88.417 117.583 88.462 110.792 L 88.507 104.000 94.420 104.000 L 100.333 104.000 100.333 104.892 L 100.333 105.783 101.333 105.813 L 102.333 105.843 102.333 90.088 L 102.333 74.333 99.750 74.333 L 97.167 74.333 97.167 38.167 L 97.167 2.000 108.250 2.000 L 119.333 2.000 119.333 38.167 M3.417 75.375 L 3.417 76.250 4.250 76.333 L 5.083 76.417 5.083 168.958 L 5.083 261.500 80.500 261.500 L 155.917 261.500 155.917 218.292 L 155.917 175.083 156.625 175.032 L 157.333 174.981 157.333 213.907 L 157.333 252.833 214.667 252.833 L 272.000 252.833 272.000 232.917 L 272.000 213.000 272.667 213.000 L 273.333 213.000 273.333 233.583 L 273.333 254.167 216.625 254.169 C 185.435 254.170,159.748 254.216,159.542 254.272 L 159.167 254.372 159.167 258.603 L 159.167 262.833 80.583 262.833 L 2.000 262.833 2.000 168.667 L 2.000 74.500 2.708 74.500 L 3.417 74.499 3.417 75.375 M22.333 82.250 L 22.333 88.167 14.708 88.167 L 7.083 88.167 7.129 82.250 L 7.175 76.333 14.754 76.333 L 22.333 76.333 22.333 82.250 M119.336 96.042 C 119.337 106.881,119.394 115.825,119.461 115.917 C 119.542 116.027,139.332 116.083,178.250 116.083 L 236.917 116.083 237.002 133.417 C 237.049 142.950,237.105 150.769,237.127 150.792 C 237.149 150.815,237.223 150.824,237.292 150.814 C 237.360 150.803,273.548 150.803,317.708 150.814 L 398.000 150.833 398.000 151.500 L 398.000 152.167 316.792 152.167 L 235.583 152.167 235.623 134.833 L 235.664 117.500 176.832 117.500 L 118.000 117.500 118.000 96.917 L 118.000 76.333 118.667 76.333 L 119.333 76.333 119.336 96.042 M13.667 89.417 L 13.667 89.833 10.417 89.833 L 7.167 89.833 7.167 89.417 L 7.167 89.000 10.417 89.000 L 13.667 89.000 13.667 89.417 M22.374 89.417 L 22.294 89.833 19.004 89.833 L 15.713 89.833 15.793 89.417 L 15.872 89.000 19.163 89.000 L 22.454 89.000 22.374 89.417 M13.667 91.000 L 13.667 91.500 10.417 91.500 L 7.167 91.500 7.167 91.087 L 7.167 90.674 10.375 90.625 C 12.140 90.598,13.602 90.559,13.625 90.538 C 13.648 90.517,13.667 90.725,13.667 91.000 M22.369 91.000 L 22.296 91.500 19.084 91.500 L 15.872 91.500 15.793 91.087 L 15.714 90.673 19.065 90.625 C 20.909 90.598,22.422 90.559,22.429 90.538 C 22.437 90.517,22.409 90.725,22.369 91.000 M13.707 92.750 L 13.628 93.167 10.397 93.167 L 7.167 93.167 7.167 92.750 L 7.167 92.333 10.477 92.333 L 13.787 92.333 13.707 92.750 M22.374 92.750 L 22.294 93.167 19.004 93.167 L 15.713 93.167 15.793 92.750 L 15.872 92.333 19.163 92.333 L 22.454 92.333 22.374 92.750 M13.667 94.333 C 13.667 94.655,13.556 94.667,10.417 94.667 C 7.278 94.667,7.167 94.655,7.167 94.333 C 7.167 94.011,7.278 94.000,10.417 94.000 C 13.556 94.000,13.667 94.011,13.667 94.333 M22.382 94.333 C 22.467 94.658,22.387 94.667,19.171 94.667 C 16.012 94.667,15.869 94.653,15.785 94.333 C 15.700 94.008,15.780 94.000,18.996 94.000 C 22.154 94.000,22.298 94.014,22.382 94.333 M13.636 96.125 L 13.583 96.583 10.417 96.583 L 7.250 96.583 7.197 96.125 L 7.145 95.667 10.417 95.667 L 13.689 95.667 13.636 96.125 M22.303 96.125 L 22.250 96.583 19.333 96.631 C 15.868 96.687,15.683 96.659,15.792 96.086 L 15.872 95.667 19.114 95.667 L 22.355 95.667 22.303 96.125 M13.667 97.708 L 13.667 98.083 10.417 98.035 C 7.317 97.989,7.167 97.971,7.167 97.660 C 7.167 97.347,7.300 97.333,10.417 97.333 L 13.667 97.333 13.667 97.708 M22.333 97.667 C 22.333 97.989,22.222 98.000,19.103 98.000 C 16.012 98.000,15.868 97.986,15.785 97.667 C 15.700 97.342,15.780 97.333,19.016 97.333 C 22.222 97.333,22.333 97.344,22.333 97.667 M13.667 99.417 L 13.667 99.833 10.417 99.833 L 7.167 99.833 7.167 99.417 L 7.167 99.000 10.417 99.000 L 13.667 99.000 13.667 99.417 M22.333 99.417 L 22.333 99.833 19.023 99.833 L 15.713 99.833 15.793 99.417 L 15.872 99.000 19.103 99.000 L 22.333 99.000 22.333 99.417 M13.636 100.958 L 13.583 101.417 10.375 101.462 L 7.167 101.507 7.167 101.004 L 7.167 100.500 10.428 100.500 L 13.689 100.500 13.636 100.958 M22.375 100.919 C 22.484 101.492,22.298 101.521,18.845 101.464 L 15.940 101.417 15.818 100.958 L 15.695 100.500 18.995 100.500 L 22.294 100.500 22.375 100.919 M22.408 102.625 L 22.388 103.083 19.050 103.128 L 15.712 103.173 15.791 102.757 L 15.871 102.340 19.144 102.291 C 20.944 102.265,22.419 102.225,22.422 102.205 C 22.425 102.184,22.419 102.373,22.408 102.625 M13.667 102.750 L 13.667 103.167 10.417 103.167 L 7.167 103.167 7.167 102.750 L 7.167 102.333 10.417 102.333 L 13.667 102.333 13.667 102.750 M13.707 104.250 L 13.787 104.667 10.477 104.667 L 7.167 104.667 7.167 104.250 L 7.167 103.833 10.397 103.833 L 13.628 103.833 13.707 104.250 M22.333 104.250 L 22.333 104.667 19.103 104.667 L 15.872 104.667 15.793 104.250 L 15.713 103.833 19.023 103.833 L 22.333 103.833 22.333 104.250 M86.500 110.803 L 86.500 117.583 84.875 117.583 L 83.250 117.583 83.250 110.750 L 83.250 103.917 84.875 103.969 L 86.500 104.022 86.500 110.803 M13.716 105.961 C 13.816 106.485,13.575 106.520,10.179 106.464 L 7.274 106.417 7.162 106.000 L 7.051 105.583 10.347 105.583 C 13.640 105.583,13.644 105.584,13.716 105.961 M22.333 106.000 L 22.333 106.500 19.083 106.500 L 15.833 106.500 15.833 106.087 L 15.833 105.674 19.042 105.625 C 20.806 105.598,22.269 105.559,22.292 105.538 C 22.315 105.517,22.333 105.725,22.333 106.000 M162.667 127.269 C 162.667 134.697,162.661 134.833,162.337 134.833 C 162.013 134.833,162.006 134.682,161.962 127.198 L 161.917 119.562 162.292 119.634 L 162.667 119.706 162.667 127.269 M164.333 127.269 L 164.333 134.833 163.917 134.833 L 163.500 134.833 163.500 127.278 C 163.500 119.374,163.493 119.486,164.010 119.621 C 164.324 119.703,164.333 119.921,164.333 127.269 M195.500 127.208 L 195.500 134.917 187.000 134.872 L 178.500 134.827 178.500 127.249 L 178.500 119.670 186.958 119.625 C 191.610 119.600,195.435 119.562,195.458 119.540 C 195.481 119.518,195.500 122.969,195.500 127.208 M159.333 127.250 C 159.333 134.722,159.328 134.833,159.000 134.833 C 158.672 134.833,158.667 134.722,158.667 127.250 C 158.667 119.778,158.672 119.667,159.000 119.667 C 159.328 119.667,159.333 119.778,159.333 127.250 M161.000 127.250 L 161.000 134.833 160.583 134.833 L 160.167 134.833 160.167 127.250 L 160.167 119.667 160.583 119.667 L 161.000 119.667 161.000 127.250 M166.000 127.250 C 166.000 134.722,165.995 134.833,165.667 134.833 C 165.338 134.833,165.333 134.722,165.333 127.250 C 165.333 119.778,165.338 119.667,165.667 119.667 C 165.995 119.667,166.000 119.778,166.000 127.250 M167.667 127.250 L 167.667 134.833 167.250 134.833 L 166.833 134.833 166.833 127.250 L 166.833 119.667 167.250 119.667 L 167.667 119.667 167.667 127.250 M169.333 127.250 C 169.333 134.722,169.328 134.833,169.000 134.833 C 168.672 134.833,168.667 134.722,168.667 127.250 C 168.667 119.778,168.672 119.667,169.000 119.667 C 169.328 119.667,169.333 119.778,169.333 127.250 M171.000 127.231 L 171.000 134.794 170.583 134.874 L 170.167 134.954 170.167 127.310 L 170.167 119.667 170.583 119.667 L 171.000 119.667 171.000 127.231 M172.667 127.250 L 172.667 134.833 172.250 134.833 L 171.833 134.833 171.833 127.250 L 171.833 119.667 172.250 119.667 L 172.667 119.667 172.667 127.250 M174.333 127.231 L 174.333 134.794 173.917 134.874 L 173.500 134.954 173.500 127.310 L 173.500 119.667 173.917 119.667 L 174.333 119.667 174.333 127.231 M176.000 127.310 L 176.000 134.954 175.583 134.874 L 175.167 134.794 175.167 127.231 L 175.167 119.667 175.583 119.667 L 176.000 119.667 176.000 127.310 M177.667 127.250 L 177.667 134.833 177.250 134.833 L 176.833 134.833 176.833 127.250 L 176.833 119.667 177.250 119.667 L 177.667 119.667 177.667 127.250 M100.333 126.991 L 100.333 127.833 74.333 127.833 L 48.333 127.833 48.333 128.917 C 48.333 129.513,48.390 129.991,48.458 129.980 C 48.527 129.969,53.215 129.969,58.875 129.980 L 69.167 130.000 69.167 143.667 L 69.167 157.333 54.585 157.333 L 40.004 157.333 39.960 143.615 L 39.917 129.896 40.792 129.969 L 41.667 130.041 41.667 128.956 L 41.667 127.870 39.833 127.845 L 37.998 127.820 38.041 145.346 L 38.083 162.872 39.000 162.889 L 39.917 162.907 39.964 161.120 L 40.011 159.333 54.589 159.333 L 69.167 159.333 69.167 166.167 L 69.167 173.000 57.167 173.000 L 45.167 173.000 45.167 171.250 L 45.167 169.500 41.583 169.500 L 38.000 169.500 38.000 184.333 L 38.000 199.167 39.000 199.167 L 40.000 199.167 40.000 187.083 L 40.000 175.000 67.583 175.000 L 95.167 175.000 95.167 182.750 L 95.167 190.500 97.750 190.500 L 100.333 190.500 100.333 209.583 L 100.333 228.667 109.958 228.667 L 119.583 228.667 119.583 227.667 L 119.583 226.667 110.960 226.667 L 102.336 226.667 102.293 208.542 L 102.250 190.417 104.833 190.417 L 107.417 190.417 107.467 189.458 L 107.517 188.500 104.925 188.500 L 102.333 188.500 102.314 180.875 C 102.303 176.681,102.303 173.194,102.314 173.125 C 102.324 173.056,95.321 173.000,86.750 173.000 L 71.167 173.000 71.167 151.502 L 71.167 130.003 86.582 129.960 L 101.997 129.917 102.040 147.125 L 102.083 164.333 101.208 164.333 L 100.333 164.333 100.333 165.333 L 100.333 166.333 102.167 166.333 L 104.000 166.333 104.000 147.067 L 104.000 127.801 103.167 127.859 L 102.333 127.917 102.333 127.069 L 102.333 126.221 101.333 126.185 L 100.333 126.149 100.333 126.991 M29.333 132.417 L 29.333 134.833 28.583 134.833 L 27.833 134.833 27.833 132.417 L 27.833 130.000 28.583 130.000 L 29.333 130.000 29.333 132.417 M195.500 136.125 L 195.500 136.583 187.000 136.583 L 178.500 136.583 178.500 136.125 L 178.500 135.667 187.000 135.667 L 195.500 135.667 195.500 136.125 M176.500 144.583 L 176.500 152.167 167.167 152.167 L 157.833 152.167 157.833 144.583 L 157.833 137.000 167.167 137.000 L 176.500 137.000 176.500 144.583 M195.469 137.792 L 195.417 138.250 187.000 138.250 L 178.583 138.250 178.531 137.792 L 178.478 137.333 187.000 137.333 L 195.522 137.333 195.469 137.792 M195.541 139.417 L 195.620 139.833 187.060 139.833 L 178.500 139.833 178.500 139.417 L 178.500 139.000 186.981 139.000 L 195.461 139.000 195.541 139.417 M195.500 141.083 L 195.500 141.500 187.000 141.500 L 178.500 141.500 178.500 141.083 L 178.500 140.667 187.000 140.667 L 195.500 140.667 195.500 141.083 M193.559 142.499 C 193.362 142.578,193.150 142.725,193.089 142.824 C 193.027 142.924,192.912 142.965,192.833 142.917 C 192.754 142.868,192.643 142.904,192.585 142.997 C 192.517 143.108,190.045 143.167,185.490 143.167 L 178.500 143.167 178.500 142.750 L 178.500 142.333 186.208 142.344 C 190.731 142.350,193.769 142.414,193.559 142.499 M195.500 147.333 L 195.500 152.167 187.000 152.167 L 178.500 152.167 178.500 151.353 C 178.500 150.514,178.542 150.466,179.483 150.244 C 179.612 150.214,179.762 150.119,179.817 150.034 C 179.872 149.948,180.104 149.821,180.333 149.750 C 180.563 149.680,181.650 149.186,182.750 148.654 C 183.850 148.121,185.725 147.225,186.917 146.662 C 188.108 146.100,189.233 145.559,189.417 145.461 C 189.600 145.362,189.900 145.206,190.083 145.115 C 190.267 145.023,190.567 144.873,190.750 144.781 C 190.933 144.690,191.196 144.563,191.333 144.500 C 191.886 144.247,194.610 142.941,195.000 142.743 C 195.229 142.626,195.435 142.524,195.458 142.515 C 195.481 142.507,195.500 144.675,195.500 147.333 M190.083 144.203 C 189.900 144.310,189.750 144.365,189.750 144.326 C 189.750 144.288,189.565 144.386,189.338 144.545 C 188.968 144.803,188.387 144.833,183.713 144.833 L 178.500 144.833 178.500 144.417 L 178.500 144.000 184.458 144.005 C 189.059 144.009,190.341 144.054,190.083 144.203 M193.167 144.992 C 193.167 145.339,193.387 145.667,193.622 145.667 C 193.814 145.667,193.830 145.613,193.689 145.443 C 193.586 145.320,193.543 145.179,193.592 145.130 C 193.641 145.081,193.565 144.997,193.424 144.942 C 193.282 144.888,193.167 144.910,193.167 144.992 M186.667 145.861 C 186.667 145.968,186.621 146.010,186.565 145.954 C 186.509 145.898,186.192 145.998,185.859 146.176 C 185.318 146.466,184.904 146.500,181.877 146.500 L 178.500 146.500 178.500 146.083 L 178.500 145.667 182.583 145.667 C 185.583 145.667,186.667 145.718,186.667 145.861 M182.583 147.754 C 181.287 148.364,178.500 148.362,178.500 147.750 L 178.500 147.333 180.958 147.347 L 183.417 147.361 182.583 147.754 M179.750 149.121 C 179.567 149.166,179.342 149.258,179.250 149.325 C 178.809 149.650,178.500 149.651,178.500 149.328 C 178.500 149.045,178.609 149.003,179.292 149.019 C 179.727 149.030,179.933 149.076,179.750 149.121 M29.370 166.125 L 29.417 171.250 28.625 171.192 L 27.833 171.134 27.833 166.067 L 27.833 161.000 28.579 161.000 L 29.324 161.000 29.370 166.125 M43.167 172.250 L 43.167 173.000 41.583 173.000 L 40.000 173.000 40.000 172.250 L 40.000 171.500 41.583 171.500 L 43.167 171.500 43.167 172.250 M195.467 173.874 L 195.417 174.750 185.958 174.750 L 176.500 174.750 176.500 175.708 L 176.500 176.667 189.583 176.667 L 202.667 176.667 202.667 175.833 L 202.667 175.000 209.502 175.000 L 216.338 175.000 216.294 180.042 C 216.270 182.815,216.194 185.065,216.125 185.042 C 216.056 185.019,207.563 185.000,197.250 185.000 L 178.500 185.000 178.500 184.167 L 178.500 183.333 177.500 183.333 L 176.500 183.333 176.500 185.167 L 176.500 187.001 214.672 186.959 L 252.844 186.917 252.880 185.118 L 252.917 183.319 251.917 183.368 L 250.917 183.417 250.866 184.208 L 250.815 185.000 235.408 185.000 L 220.000 185.000 220.000 180.000 L 220.000 175.000 226.833 175.000 L 233.667 175.000 233.667 175.833 L 233.667 176.667 245.917 176.667 L 258.167 176.667 258.167 175.708 L 258.167 174.750 247.998 174.797 C 236.682 174.848,237.108 174.889,237.195 173.779 L 237.250 173.083 216.384 173.041 L 195.517 172.999 195.467 173.874 M100.333 181.761 L 100.333 188.500 98.754 188.500 L 97.174 188.500 97.129 181.708 L 97.083 174.917 98.708 174.969 L 100.333 175.022 100.333 181.761 M398.000 175.667 L 398.000 176.333 336.750 176.333 L 275.500 176.333 275.500 175.667 L 275.500 175.000 336.750 175.000 L 398.000 175.000 398.000 175.667 M353.000 182.583 L 353.000 186.833 352.583 186.833 L 352.167 186.833 352.167 182.583 L 352.167 178.333 352.583 178.333 L 353.000 178.333 353.000 182.583 M354.667 182.583 C 354.667 186.722,354.658 186.833,354.333 186.833 C 354.009 186.833,354.000 186.722,354.000 182.583 C 354.000 178.444,354.009 178.333,354.333 178.333 C 354.658 178.333,354.667 178.444,354.667 182.583 M356.333 182.583 L 356.333 186.833 355.917 186.833 L 355.500 186.833 355.500 182.583 L 355.500 178.333 355.917 178.333 L 356.333 178.333 356.333 182.583 M358.000 182.583 C 358.000 186.722,357.991 186.833,357.667 186.833 C 357.342 186.833,357.333 186.722,357.333 182.583 C 357.333 178.444,357.342 178.333,357.667 178.333 C 357.991 178.333,358.000 178.444,358.000 182.583 M359.667 182.583 L 359.667 186.833 359.250 186.833 L 358.833 186.833 358.833 182.583 L 358.833 178.333 359.250 178.333 L 359.667 178.333 359.667 182.583 M361.399 178.597 C 361.454 178.742,361.500 180.536,361.500 182.583 C 361.500 186.625,361.473 186.833,360.941 186.833 C 360.585 186.833,360.583 186.817,360.583 182.583 C 360.583 178.350,360.585 178.333,360.941 178.333 C 361.137 178.333,361.343 178.452,361.399 178.597 M363.000 182.583 L 363.000 186.833 362.583 186.833 L 362.167 186.833 362.167 182.583 L 362.167 178.333 362.583 178.333 L 363.000 178.333 363.000 182.583 M364.703 182.669 C 364.742 186.225,364.710 186.989,364.528 186.919 C 364.406 186.872,364.200 186.833,364.070 186.833 C 363.872 186.833,363.833 186.141,363.833 182.583 L 363.833 178.333 364.245 178.333 L 364.656 178.333 364.703 182.669 M366.333 182.583 L 366.333 186.833 365.917 186.833 L 365.500 186.833 365.500 182.583 L 365.500 178.333 365.917 178.333 L 366.333 178.333 366.333 182.583 M368.000 182.583 L 368.000 186.833 367.583 186.833 L 367.167 186.833 367.167 182.583 L 367.167 178.333 367.583 178.333 L 368.000 178.333 368.000 182.583 M369.667 182.583 L 369.667 186.833 369.250 186.833 L 368.833 186.833 368.833 182.583 L 368.833 178.333 369.250 178.333 L 369.667 178.333 369.667 182.583 M371.333 182.583 L 371.333 186.833 370.917 186.833 L 370.500 186.833 370.500 182.583 L 370.500 178.333 370.917 178.333 L 371.333 178.333 371.333 182.583 M373.000 182.583 L 373.000 186.833 372.589 186.833 L 372.178 186.833 372.130 182.583 L 372.083 178.333 372.542 178.333 L 373.000 178.333 373.000 182.583 M380.667 182.583 L 380.667 186.833 377.250 186.833 L 373.833 186.833 373.833 182.583 L 373.833 178.333 377.250 178.333 L 380.667 178.333 380.667 182.583 M382.167 182.583 L 382.167 186.833 381.750 186.833 L 381.333 186.833 381.333 182.583 L 381.333 178.333 381.750 178.333 L 382.167 178.333 382.167 182.583 M384.000 182.564 L 384.000 186.796 383.542 186.863 L 383.083 186.930 383.130 182.632 L 383.177 178.333 383.589 178.333 L 384.000 178.333 384.000 182.564 M385.500 182.417 C 385.500 184.662,385.502 186.556,385.505 186.625 C 385.508 186.694,385.321 186.774,385.089 186.803 L 384.667 186.855 384.667 182.594 L 384.667 178.333 385.083 178.333 L 385.500 178.333 385.500 182.417 M387.333 182.583 L 387.333 186.833 386.917 186.833 L 386.500 186.833 386.500 182.583 L 386.500 178.333 386.917 178.333 L 387.333 178.333 387.333 182.583 M388.833 182.583 L 388.833 186.833 388.417 186.833 L 388.000 186.833 388.000 182.583 L 388.000 178.333 388.417 178.333 L 388.833 178.333 388.833 182.583 M390.667 182.583 L 390.667 186.833 390.250 186.833 L 389.833 186.833 389.833 182.583 L 389.833 178.333 390.250 178.333 L 390.667 178.333 390.667 182.583 M392.167 182.417 C 392.167 184.662,392.169 186.556,392.172 186.625 C 392.175 186.694,391.987 186.774,391.755 186.803 L 391.333 186.855 391.333 182.594 L 391.333 178.333 391.750 178.333 L 392.167 178.333 392.167 182.417 M393.917 180.667 C 393.917 181.950,393.863 183.000,393.797 183.000 C 393.731 183.000,393.567 183.356,393.433 183.792 C 393.200 184.552,393.189 184.458,393.178 181.458 L 393.167 178.333 393.542 178.334 C 393.913 178.334,393.917 178.358,393.917 180.667 M395.248 179.004 C 394.802 180.271,394.677 180.333,394.672 179.292 C 394.667 178.384,394.688 178.333,395.076 178.333 C 395.482 178.333,395.483 178.339,395.248 179.004 M153.963 186.042 L 154.009 188.500 151.596 188.500 L 149.184 188.500 149.134 186.069 C 149.106 184.732,149.117 183.605,149.157 183.565 C 149.198 183.524,150.285 183.512,151.574 183.537 L 153.917 183.583 153.963 186.042 " stroke="none" fill="#8c8c8c" fill-rule="evenodd"></path><path id="path1" d="M1.549 72.624 C 2.171 72.656,3.146 72.656,3.715 72.623 C 4.284 72.591,3.775 72.564,2.583 72.565 C 1.392 72.565,0.926 72.592,1.549 72.624 M5.083 168.750 C 5.083 219.533,5.102 240.283,5.125 214.861 C 5.148 189.439,5.148 147.889,5.125 122.528 C 5.102 97.167,5.083 117.967,5.083 168.750 M8.884 96.624 C 9.782 96.654,11.207 96.654,12.050 96.624 C 12.893 96.594,12.158 96.569,10.417 96.569 C 8.675 96.570,7.985 96.594,8.884 96.624 M17.550 96.624 C 18.449 96.654,19.874 96.654,20.717 96.624 C 21.560 96.594,20.825 96.569,19.083 96.569 C 17.342 96.570,16.652 96.594,17.550 96.624 M8.708 101.458 C 9.602 101.488,11.065 101.488,11.958 101.458 C 12.852 101.428,12.121 101.403,10.333 101.403 C 8.546 101.403,7.815 101.428,8.708 101.458 M17.550 101.458 C 18.449 101.488,19.874 101.488,20.717 101.457 C 21.560 101.427,20.825 101.403,19.083 101.403 C 17.342 101.403,16.652 101.428,17.550 101.458 M8.884 106.458 C 9.782 106.488,11.207 106.488,12.050 106.457 C 12.893 106.427,12.158 106.403,10.417 106.403 C 8.675 106.403,7.985 106.428,8.884 106.458 M17.467 106.458 C 18.412 106.488,19.912 106.487,20.801 106.457 C 21.689 106.428,20.917 106.403,19.083 106.403 C 17.250 106.404,16.523 106.428,17.467 106.458 M46.542 107.292 C 49.085 107.317,53.248 107.317,55.792 107.292 C 58.335 107.266,56.254 107.245,51.167 107.245 C 46.079 107.245,43.998 107.266,46.542 107.292 M149.042 116.125 C 165.152 116.148,191.515 116.148,207.625 116.125 C 223.735 116.102,210.554 116.082,178.333 116.082 C 146.112 116.082,132.931 116.102,149.042 116.125 M219.042 135.791 C 220.485 135.819,222.848 135.819,224.292 135.791 C 225.735 135.764,224.554 135.741,221.667 135.741 C 218.779 135.741,217.598 135.764,219.042 135.791 M232.544 135.786 C 232.797 135.825,233.172 135.824,233.377 135.784 C 233.582 135.744,233.375 135.713,232.917 135.714 C 232.458 135.716,232.291 135.748,232.544 135.786 M182.792 138.292 C 185.106 138.318,188.894 138.318,191.208 138.292 C 193.523 138.265,191.629 138.244,187.000 138.244 C 182.371 138.244,180.477 138.265,182.792 138.292 M196.713 157.623 C 197.152 157.657,197.827 157.657,198.213 157.622 C 198.600 157.587,198.242 157.559,197.417 157.559 C 196.592 157.560,196.275 157.588,196.713 157.623 M210.137 157.625 C 213.192 157.650,218.142 157.650,221.137 157.625 C 224.133 157.599,221.633 157.579,215.583 157.579 C 209.533 157.579,207.083 157.599,210.137 157.625 M233.125 157.622 C 233.515 157.657,234.152 157.657,234.542 157.622 C 234.931 157.587,234.612 157.558,233.833 157.558 C 233.054 157.558,232.735 157.587,233.125 157.622 M12.625 159.125 C 15.673 159.150,20.660 159.150,23.708 159.125 C 26.756 159.099,24.262 159.079,18.167 159.079 C 12.071 159.079,9.577 159.099,12.625 159.125 M237.205 174.000 C 237.205 174.321,237.240 174.452,237.282 174.292 C 237.323 174.131,237.323 173.869,237.282 173.708 C 237.240 173.548,237.205 173.679,237.205 174.000 M161.708 174.791 C 162.785 174.820,164.548 174.820,165.625 174.791 C 166.702 174.762,165.821 174.738,163.667 174.738 C 161.512 174.738,160.631 174.762,161.708 174.791 M181.542 174.792 C 184.085 174.817,188.248 174.817,190.792 174.792 C 193.335 174.766,191.254 174.745,186.167 174.745 C 181.079 174.745,178.998 174.766,181.542 174.792 M242.625 174.792 C 245.398 174.817,249.935 174.817,252.708 174.792 C 255.481 174.766,253.213 174.745,247.667 174.745 C 242.121 174.745,239.852 174.766,242.625 174.792 M267.958 174.790 C 268.623 174.822,269.710 174.822,270.375 174.790 C 271.040 174.759,270.496 174.733,269.167 174.733 C 267.837 174.733,267.294 174.759,267.958 174.790 M155.915 218.083 C 155.915 241.733,155.935 251.384,155.958 239.528 C 155.982 227.673,155.982 208.323,155.958 196.528 C 155.935 184.734,155.915 194.433,155.915 218.083 M361.405 182.583 C 361.405 184.783,361.429 185.660,361.458 184.532 C 361.487 183.404,361.487 181.604,361.458 180.532 C 361.429 179.460,361.405 180.383,361.405 182.583 M147.070 185.167 C 147.070 186.954,147.094 187.685,147.124 186.792 C 147.154 185.898,147.154 184.435,147.124 183.542 C 147.094 182.648,147.070 183.379,147.070 185.167 M252.892 185.250 C 252.892 186.075,252.920 186.434,252.955 186.047 C 252.990 185.660,252.990 184.985,252.956 184.547 C 252.922 184.109,252.893 184.425,252.892 185.250 " stroke="none" fill="#8c8c94" fill-rule="evenodd"></path><path id="path2" d="M119.539 120.333 C 119.539 120.654,119.573 120.785,119.615 120.625 C 119.657 120.465,119.657 120.202,119.615 120.042 C 119.573 119.881,119.539 120.013,119.539 120.333 M197.875 138.448 C 198.035 138.490,198.298 138.490,198.458 138.448 C 198.619 138.406,198.487 138.372,198.167 138.372 C 197.846 138.372,197.715 138.406,197.875 138.448 M207.135 138.458 C 208.539 138.486,210.789 138.486,212.135 138.458 C 213.482 138.430,212.333 138.407,209.583 138.407 C 206.833 138.407,205.732 138.430,207.135 138.458 M150.292 183.624 C 150.956 183.655,152.044 183.655,152.708 183.624 C 153.373 183.592,152.829 183.566,151.500 183.566 C 150.171 183.566,149.627 183.592,150.292 183.624 M119.574 212.833 C 119.574 215.629,119.597 216.773,119.625 215.375 C 119.653 213.977,119.653 211.690,119.625 210.292 C 119.597 208.894,119.574 210.037,119.574 212.833 M119.542 227.583 C 119.544 227.950,119.578 228.080,119.618 227.873 C 119.658 227.666,119.656 227.366,119.615 227.206 C 119.573 227.047,119.540 227.217,119.542 227.583 " stroke="none" fill="#908c8c" fill-rule="evenodd"></path><path id="path3" d="M119.539 120.333 C 119.539 120.654,119.573 120.785,119.615 120.625 C 119.657 120.465,119.657 120.202,119.615 120.042 C 119.573 119.881,119.539 120.013,119.539 120.333 M197.875 138.448 C 198.035 138.490,198.298 138.490,198.458 138.448 C 198.619 138.406,198.487 138.372,198.167 138.372 C 197.846 138.372,197.715 138.406,197.875 138.448 M207.135 138.458 C 208.539 138.486,210.789 138.486,212.135 138.458 C 213.482 138.430,212.333 138.407,209.583 138.407 C 206.833 138.407,205.732 138.430,207.135 138.458 M150.292 183.624 C 150.956 183.655,152.044 183.655,152.708 183.624 C 153.373 183.592,152.829 183.566,151.500 183.566 C 150.171 183.566,149.627 183.592,150.292 183.624 M119.574 212.833 C 119.574 215.629,119.597 216.773,119.625 215.375 C 119.653 213.977,119.653 211.690,119.625 210.292 C 119.597 208.894,119.574 210.037,119.574 212.833 M119.542 227.583 C 119.544 227.950,119.578 228.080,119.618 227.873 C 119.658 227.666,119.656 227.366,119.615 227.206 C 119.573 227.047,119.540 227.217,119.542 227.583 " stroke="none" fill="#908c8c" fill-rule="evenodd"></path><path id="path4" d="M119.539 120.333 C 119.539 120.654,119.573 120.785,119.615 120.625 C 119.657 120.465,119.657 120.202,119.615 120.042 C 119.573 119.881,119.539 120.013,119.539 120.333 M197.875 138.448 C 198.035 138.490,198.298 138.490,198.458 138.448 C 198.619 138.406,198.487 138.372,198.167 138.372 C 197.846 138.372,197.715 138.406,197.875 138.448 M207.135 138.458 C 208.539 138.486,210.789 138.486,212.135 138.458 C 213.482 138.430,212.333 138.407,209.583 138.407 C 206.833 138.407,205.732 138.430,207.135 138.458 M150.292 183.624 C 150.956 183.655,152.044 183.655,152.708 183.624 C 153.373 183.592,152.829 183.566,151.500 183.566 C 150.171 183.566,149.627 183.592,150.292 183.624 M119.574 212.833 C 119.574 215.629,119.597 216.773,119.625 215.375 C 119.653 213.977,119.653 211.690,119.625 210.292 C 119.597 208.894,119.574 210.037,119.574 212.833 M119.542 227.583 C 119.544 227.950,119.578 228.080,119.618 227.873 C 119.658 227.666,119.656 227.366,119.615 227.206 C 119.573 227.047,119.540 227.217,119.542 227.583 " stroke="none" fill="#908c8c" fill-rule="evenodd"></path></g></svg>