<svg id="svg" version="1.1" xmlns="http://www.w3.org/2000/svg" xmlns:xlink="http://www.w3.org/1999/xlink" width="400" height="312.7342623738587" viewBox="0, 0, 400,312.7342623738587"><g id="svgg"><path id="path0" d="M191.254 1.346 L 191.254 2.691 95.627 2.691 L 0.000 2.691 0.000 138.683 L 0.000 274.676 10.668 274.676 L 21.336 274.676 21.336 276.598 L 21.336 278.520 16.482 278.520 L 11.629 278.520 11.668 292.696 C 11.690 300.493,11.711 308.148,11.716 309.707 L 11.725 312.542 65.513 312.542 C 95.097 312.542,119.362 312.482,119.435 312.408 C 119.509 312.335,119.692 312.257,119.843 312.234 C 120.187 312.184,127.182 307.862,132.520 304.401 C 133.359 303.857,134.204 303.325,134.396 303.220 C 134.588 303.114,135.416 302.605,136.234 302.088 C 138.085 300.919,138.962 300.367,139.885 299.789 C 140.281 299.541,141.081 299.034,141.663 298.663 C 142.244 298.292,142.909 297.890,143.140 297.769 C 143.450 297.607,152.639 297.549,178.346 297.549 L 213.133 297.549 213.630 298.141 C 213.904 298.466,214.128 298.817,214.128 298.920 C 214.128 299.023,214.387 299.384,214.704 299.722 C 215.020 300.060,215.280 300.411,215.280 300.503 C 215.281 300.595,215.562 300.918,215.906 301.221 C 216.249 301.524,216.446 301.773,216.344 301.775 C 216.241 301.777,216.350 301.914,216.587 302.079 C 216.824 302.245,216.972 302.454,216.917 302.544 C 216.862 302.633,216.882 302.735,216.962 302.771 C 217.042 302.806,217.580 303.441,218.156 304.181 C 219.541 305.959,219.546 305.965,219.990 306.411 C 220.202 306.624,220.375 306.864,220.375 306.944 C 220.375 307.584,221.138 307.818,223.477 307.896 L 225.853 307.975 225.853 310.355 L 225.853 312.734 245.074 312.734 L 264.296 312.734 264.296 310.258 L 264.296 307.782 266.767 307.705 C 269.206 307.629,269.966 307.403,269.966 306.752 C 269.966 306.671,270.139 306.432,270.351 306.219 C 270.795 305.773,270.800 305.767,272.185 303.988 C 272.762 303.248,273.299 302.614,273.379 302.578 C 273.459 302.543,273.480 302.441,273.424 302.351 C 273.369 302.262,273.517 302.053,273.754 301.887 C 273.991 301.721,274.100 301.584,273.998 301.583 C 273.895 301.581,274.092 301.332,274.435 301.029 C 274.779 300.726,275.060 300.403,275.061 300.311 C 275.061 300.219,275.321 299.868,275.638 299.530 C 275.954 299.192,276.213 298.831,276.213 298.728 C 276.213 298.624,276.437 298.274,276.711 297.948 L 277.209 297.357 337.612 297.357 L 398.015 297.357 398.131 288.083 C 398.195 282.982,398.214 246.372,398.173 206.728 C 398.133 167.083,398.095 127.217,398.089 118.135 L 398.078 101.624 378.952 101.727 L 359.827 101.831 359.827 83.304 L 359.827 64.777 349.736 64.777 L 339.644 64.777 339.644 59.282 L 339.644 53.788 291.975 53.852 L 244.306 53.916 244.306 48.486 L 244.306 43.056 243.296 43.022 C 241.772 42.969,232.838 42.912,222.153 42.887 L 212.590 42.864 212.590 21.432 L 212.590 0.000 201.922 0.000 L 191.254 0.000 191.254 1.346 M209.901 11.389 C 209.902 16.173,209.924 25.839,209.949 32.869 L 209.995 45.651 224.796 45.691 C 232.936 45.713,240.440 45.734,241.470 45.739 C 243.005 45.746,243.345 45.800,243.345 46.036 C 243.345 46.287,242.309 46.324,235.175 46.324 L 227.006 46.324 227.006 50.072 L 227.006 53.820 223.955 53.820 C 222.277 53.820,220.633 53.874,220.303 53.940 L 219.702 54.061 219.702 55.670 L 219.702 57.280 218.549 57.280 L 217.395 57.280 217.395 61.124 L 217.395 64.969 218.549 64.969 L 219.702 64.969 219.702 70.735 L 219.702 76.502 208.600 76.502 L 197.498 76.502 197.565 75.666 L 197.631 74.829 196.605 74.706 C 195.280 74.547,191.182 74.544,190.033 74.702 L 189.143 74.824 189.143 96.134 L 189.143 117.444 204.519 117.444 L 219.894 117.444 219.894 122.922 L 219.894 128.400 223.450 128.400 L 227.006 128.400 227.006 119.818 L 227.006 111.237 252.667 111.313 L 278.327 111.389 278.327 118.357 L 278.328 125.324 279.577 125.324 L 280.827 125.324 280.827 116.290 L 280.827 107.256 292.263 107.256 L 303.700 107.256 303.700 115.041 L 303.700 122.826 296.973 122.826 L 290.245 122.826 290.245 134.802 L 290.245 146.778 289.332 147.433 C 288.830 147.793,288.376 148.091,288.323 148.095 C 288.270 148.100,287.751 148.405,287.170 148.774 C 286.588 149.142,285.961 149.507,285.776 149.584 C 285.591 149.660,285.440 149.813,285.440 149.922 C 285.440 150.031,285.375 150.102,285.296 150.079 C 285.095 150.022,284.249 150.503,283.902 150.871 C 283.743 151.040,283.485 151.206,283.327 151.241 C 283.170 151.276,282.987 151.391,282.921 151.497 C 282.856 151.604,282.725 151.695,282.631 151.700 C 282.304 151.719,281.595 152.105,281.595 152.265 C 281.595 152.354,281.466 152.427,281.307 152.427 C 281.148 152.427,281.019 152.504,281.019 152.598 C 281.019 152.692,280.802 152.824,280.538 152.890 C 280.274 152.956,280.058 153.096,280.058 153.199 C 280.058 153.303,279.970 153.388,279.863 153.388 C 279.674 153.388,276.597 155.251,276.405 155.482 C 276.352 155.546,275.919 155.806,275.444 156.060 C 274.969 156.315,274.076 156.855,273.461 157.262 C 272.845 157.668,272.275 158.001,272.193 158.001 C 272.111 158.001,271.888 158.174,271.696 158.385 C 271.505 158.597,271.261 158.770,271.155 158.770 C 270.962 158.770,269.092 159.899,268.909 160.126 C 268.856 160.191,268.381 160.493,267.852 160.795 C 267.323 161.098,266.829 161.437,266.754 161.548 C 266.672 161.669,265.419 161.774,263.603 161.811 L 260.588 161.873 260.727 163.733 C 260.804 164.756,260.858 165.680,260.848 165.786 C 260.838 165.891,260.778 166.605,260.715 167.371 L 260.601 168.765 264.359 168.765 C 266.657 168.765,268.164 168.690,268.236 168.573 C 268.302 168.467,268.510 168.381,268.699 168.381 C 268.888 168.381,269.242 168.208,269.486 167.996 C 269.730 167.785,270.046 167.612,270.188 167.612 C 270.330 167.612,270.448 167.547,270.449 167.468 C 270.449 167.388,271.012 167.025,271.698 166.661 C 272.384 166.296,272.946 165.939,272.946 165.866 C 272.946 165.794,273.097 165.684,273.282 165.621 C 273.648 165.499,274.055 165.253,274.999 164.585 C 275.336 164.347,275.651 164.152,275.701 164.152 C 275.803 164.152,277.725 162.907,278.087 162.606 C 278.220 162.497,278.329 162.475,278.331 162.558 C 278.332 162.642,278.397 162.623,278.475 162.516 C 278.553 162.409,278.940 162.152,279.337 161.944 C 279.733 161.736,280.058 161.499,280.058 161.417 C 280.058 161.335,280.146 161.269,280.254 161.269 C 280.488 161.269,282.016 160.298,282.217 160.021 C 282.310 159.893,282.360 159.893,282.364 160.019 C 282.368 160.147,282.417 160.147,282.511 160.019 C 282.677 159.794,283.257 159.417,283.814 159.174 C 284.030 159.079,284.321 158.863,284.462 158.694 C 284.603 158.524,284.837 158.385,284.983 158.385 C 285.128 158.385,285.247 158.294,285.247 158.182 C 285.247 158.070,285.334 158.032,285.440 158.097 C 285.545 158.162,285.632 158.124,285.632 158.012 C 285.632 157.900,285.723 157.809,285.833 157.809 C 285.944 157.809,286.528 157.485,287.131 157.089 C 287.734 156.694,288.357 156.301,288.515 156.217 C 288.674 156.132,288.976 155.958,289.188 155.828 C 289.399 155.699,289.983 155.348,290.485 155.049 C 290.988 154.750,291.398 154.421,291.398 154.319 C 291.398 154.217,291.485 154.187,291.591 154.253 C 291.696 154.318,291.783 154.266,291.783 154.136 C 291.783 154.006,291.834 153.952,291.897 154.015 C 292.012 154.130,293.970 152.954,294.439 152.487 C 294.579 152.348,294.817 152.235,294.968 152.235 C 295.119 152.235,295.243 152.165,295.243 152.081 C 295.243 151.996,295.619 151.744,296.078 151.521 L 296.913 151.115 297.039 149.627 C 297.108 148.809,297.165 143.050,297.165 136.828 L 297.165 125.517 300.432 125.517 L 303.700 125.517 303.700 153.484 L 303.700 181.451 282.268 181.451 L 260.836 181.451 260.836 187.410 L 260.836 193.369 262.182 193.369 L 263.527 193.369 263.527 188.659 L 263.527 183.950 274.483 183.950 L 285.440 183.950 285.440 193.369 L 285.440 202.787 274.483 202.787 L 263.527 202.787 263.527 201.346 L 263.527 199.904 262.182 199.904 L 260.836 199.904 260.836 201.346 L 260.836 202.787 256.992 202.787 L 253.148 202.787 253.148 204.133 L 253.148 205.478 270.927 205.478 L 288.707 205.478 288.707 204.133 C 288.707 203.065,288.648 202.787,288.419 202.787 C 288.167 202.787,288.131 201.612,288.131 193.369 L 288.131 183.950 297.549 183.950 C 302.729 183.950,306.968 184.017,306.968 184.099 C 306.968 184.181,305.923 187.317,304.647 191.067 C 303.370 194.817,302.308 197.972,302.287 198.078 C 302.265 198.184,302.198 198.357,302.137 198.462 C 302.076 198.568,301.733 199.584,301.374 200.721 L 300.721 202.787 298.751 202.787 L 296.780 202.787 296.780 204.133 L 296.780 205.478 299.519 205.475 C 301.026 205.474,302.354 205.409,302.470 205.331 C 302.717 205.166,303.454 203.253,303.609 202.376 C 303.667 202.044,303.874 201.417,304.068 200.982 C 304.421 200.192,304.790 199.129,304.949 198.442 C 305.079 197.885,305.772 195.909,306.299 194.590 C 306.559 193.940,306.810 193.205,306.856 192.956 C 306.902 192.707,306.952 192.504,306.968 192.504 C 306.984 192.504,307.035 192.294,307.082 192.038 C 307.129 191.782,307.243 191.479,307.335 191.365 C 307.427 191.251,307.828 190.120,308.225 188.852 C 308.622 187.583,309.006 186.458,309.079 186.353 C 309.152 186.247,309.363 185.663,309.549 185.055 L 309.887 183.950 316.693 183.950 L 323.498 183.950 323.498 180.971 L 323.498 177.991 322.249 177.991 L 321.000 177.991 321.000 179.721 L 321.000 181.451 315.425 181.451 L 309.851 181.451 309.851 172.225 L 309.851 162.999 315.425 162.999 L 321.000 162.999 321.000 166.747 L 321.000 170.495 322.345 170.495 L 323.691 170.495 323.691 162.230 L 323.691 153.964 322.345 153.964 L 321.000 153.964 321.000 157.232 L 321.000 160.500 315.425 160.500 L 309.851 160.500 309.851 154.280 C 309.851 150.858,309.796 147.658,309.729 147.168 L 309.607 146.276 315.303 146.276 C 318.973 146.276,321.000 146.344,321.000 146.468 C 321.000 146.576,321.544 146.660,322.249 146.660 C 323.647 146.660,323.551 146.796,323.500 144.882 L 323.471 143.777 356.930 143.777 C 383.562 143.777,390.392 143.826,390.404 144.017 C 390.412 144.149,390.411 152.172,390.402 161.845 C 390.394 171.519,390.387 194.418,390.388 212.733 L 390.389 246.033 337.434 246.035 L 284.479 246.037 284.474 240.029 C 284.471 236.725,284.450 228.962,284.426 222.778 L 284.383 211.533 280.538 211.533 L 276.694 211.533 276.694 215.473 L 276.694 219.414 273.186 219.357 L 269.678 219.301 269.678 220.655 L 269.678 222.009 273.138 222.009 L 276.598 222.009 276.600 223.306 C 276.601 224.020,276.600 231.099,276.598 239.037 L 276.593 253.470 282.794 253.598 C 286.205 253.669,311.780 253.726,339.627 253.724 C 367.474 253.723,390.283 253.746,390.314 253.777 C 390.365 253.828,390.424 262.057,390.399 265.773 L 390.389 267.345 334.128 267.365 C 303.185 267.375,277.828 267.423,277.779 267.471 C 277.731 267.520,277.772 268.663,277.870 270.012 C 277.968 271.361,277.982 272.494,277.900 272.529 C 277.818 272.564,277.751 273.149,277.751 273.828 L 277.751 275.063 336.501 275.057 C 368.813 275.054,395.281 275.083,395.320 275.121 C 395.385 275.186,395.411 279.113,395.394 286.497 L 395.387 289.765 329.037 289.705 C 292.545 289.672,262.487 289.695,262.242 289.756 L 261.797 289.868 261.797 294.958 L 261.797 300.048 245.171 300.048 L 228.544 300.048 228.544 295.071 C 228.544 290.667,228.508 290.080,228.234 289.975 C 227.338 289.631,141.008 289.867,140.613 290.214 C 140.397 290.403,139.616 290.934,138.876 291.393 C 136.648 292.776,134.500 294.122,133.686 294.646 C 133.263 294.918,132.770 295.228,132.590 295.336 C 132.290 295.514,130.530 296.613,128.806 297.698 C 128.424 297.938,127.917 298.233,127.679 298.353 C 127.441 298.474,127.247 298.645,127.247 298.733 C 127.247 298.822,127.153 298.895,127.039 298.895 C 126.925 298.895,126.362 299.198,125.789 299.568 C 123.636 300.958,121.863 302.072,118.828 303.938 L 117.347 304.849 68.573 304.851 L 19.798 304.853 19.795 303.988 C 19.793 303.513,19.792 300.702,19.792 297.741 C 19.792 294.781,19.793 290.975,19.795 289.284 L 19.798 286.209 28.544 286.209 L 37.290 286.209 37.290 284.863 L 37.290 283.518 24.988 283.518 L 12.686 283.518 12.686 282.460 L 12.686 281.403 24.988 281.403 L 37.290 281.403 37.290 279.962 L 37.290 278.520 29.793 278.520 L 22.297 278.520 22.297 276.598 L 22.297 274.676 124.652 274.676 L 227.006 274.676 227.006 260.259 L 227.006 245.843 245.074 245.843 L 263.143 245.843 263.143 251.994 L 263.143 258.145 264.488 258.145 L 265.834 258.145 265.834 244.594 L 265.834 231.043 264.488 231.043 L 263.143 231.043 263.143 237.098 L 263.143 243.152 245.074 243.152 L 227.006 243.152 227.006 232.580 L 227.006 222.009 230.466 222.009 L 233.926 222.009 233.926 220.663 L 233.926 219.318 230.466 219.318 L 227.006 219.318 227.006 212.398 L 227.006 205.478 230.466 205.478 L 233.926 205.478 233.926 204.133 L 233.926 202.787 230.466 202.787 L 227.006 202.787 227.006 192.215 L 227.006 181.643 223.450 181.643 L 219.894 181.643 219.894 189.044 L 219.894 196.444 213.647 196.444 L 207.400 196.444 207.400 197.790 L 207.400 199.135 213.647 199.135 L 219.894 199.135 219.894 233.061 L 219.894 266.986 114.993 267.035 L 10.091 267.083 10.141 238.588 L 10.190 210.093 29.362 210.044 L 48.534 209.995 48.585 203.604 L 48.636 197.213 50.564 197.213 L 52.492 197.213 52.436 195.915 L 52.379 194.618 50.505 194.563 L 48.630 194.508 48.630 193.266 L 48.630 192.023 47.285 192.023 L 45.939 192.023 45.939 199.712 L 45.939 207.400 38.155 207.400 L 30.370 207.400 30.370 203.364 L 30.370 199.327 29.017 199.327 L 27.664 199.327 27.720 203.364 L 27.775 207.401 19.000 207.400 L 10.224 207.400 10.158 200.432 C 10.121 196.600,10.121 190.156,10.158 186.112 L 10.225 178.760 28.082 178.760 L 45.939 178.760 45.939 181.067 L 45.939 183.373 47.285 183.373 L 48.630 183.373 48.630 170.111 L 48.630 156.848 47.285 156.848 L 45.939 156.848 45.939 166.458 L 45.939 176.069 28.063 176.069 L 10.187 176.069 10.187 151.706 C 10.186 138.306,10.130 126.110,10.061 124.604 L 9.935 121.864 20.057 121.864 L 30.178 121.864 30.178 120.509 L 30.178 119.153 20.183 119.211 L 10.187 119.270 10.187 102.403 L 10.187 85.536 16.050 85.536 L 21.913 85.536 21.928 83.085 C 21.937 81.737,21.958 80.288,21.976 79.865 L 22.009 79.097 29.915 79.046 L 37.821 78.996 37.796 84.076 C 37.782 86.870,37.814 89.153,37.866 89.149 C 37.919 89.145,39.757 89.153,41.951 89.165 L 45.939 89.188 45.939 101.778 L 45.939 114.368 42.720 114.368 L 39.500 114.368 39.500 126.382 L 39.500 138.395 42.720 138.395 L 45.939 138.395 45.939 143.393 L 45.939 148.390 47.285 148.390 L 48.631 148.390 48.583 112.398 L 48.534 76.406 29.313 76.406 L 10.091 76.406 10.106 74.003 C 10.113 72.681,10.135 69.568,10.153 67.083 L 10.187 62.566 12.638 62.566 L 15.089 62.566 15.117 61.317 C 15.152 59.745,15.182 59.762,12.441 59.807 L 10.177 59.844 10.134 53.567 L 10.091 47.291 21.192 47.240 L 32.292 47.189 32.292 53.532 L 32.293 59.875 29.842 59.875 L 27.391 59.875 27.377 61.269 L 27.363 62.662 32.807 62.662 L 38.251 62.662 38.251 61.206 L 38.251 59.750 36.713 59.812 L 35.174 59.875 35.175 32.629 L 35.175 5.382 47.592 5.382 L 60.009 5.382 59.947 32.629 L 59.885 59.875 54.162 59.815 L 48.438 59.754 48.438 61.208 L 48.438 62.662 65.930 62.662 L 83.421 62.662 83.421 61.216 L 83.421 59.769 72.946 59.822 L 62.470 59.875 62.470 54.589 L 62.471 49.303 70.015 49.234 L 77.559 49.165 77.496 51.781 L 77.433 54.397 78.793 54.397 L 80.154 54.397 80.154 51.850 L 80.154 49.303 86.306 49.303 C 91.351 49.303,92.441 49.349,92.361 49.559 C 92.307 49.700,92.263 52.057,92.263 54.797 L 92.263 59.779 91.206 59.779 L 90.149 59.779 90.149 61.201 L 90.149 62.623 98.414 62.643 L 106.679 62.663 106.679 61.221 L 106.679 59.779 100.817 59.779 L 94.954 59.779 94.954 53.351 C 94.954 49.816,94.889 46.885,94.810 46.838 C 94.731 46.791,87.444 46.721,78.616 46.682 L 62.566 46.612 62.616 25.997 L 62.666 5.382 70.689 5.380 C 104.771 5.371,115.792 5.396,115.877 5.482 C 115.932 5.536,115.986 17.754,115.996 32.632 L 116.016 59.683 117.307 59.740 L 118.597 59.797 118.597 53.445 L 118.597 47.093 121.864 47.093 L 125.132 47.093 125.132 45.452 L 125.132 43.811 139.164 43.866 L 153.196 43.921 153.196 42.499 L 153.196 41.077 135.896 41.218 L 118.597 41.360 118.589 26.975 C 118.580 9.774,118.595 5.512,118.666 5.441 C 118.710 5.397,142.287 5.366,165.545 5.379 L 171.072 5.382 171.072 23.354 L 171.072 41.326 166.362 41.326 L 161.653 41.326 161.653 42.700 L 161.653 44.073 168.140 43.952 C 171.708 43.885,176.379 43.829,178.520 43.828 L 182.412 43.825 182.412 42.576 L 182.412 41.326 180.202 41.326 L 177.991 41.326 177.991 23.162 L 177.991 4.998 183.469 4.998 L 188.948 4.998 188.948 31.139 L 188.948 57.280 181.019 57.282 C 176.658 57.283,172.651 57.336,172.114 57.401 L 171.139 57.518 171.134 61.339 L 171.130 65.161 190.226 65.161 L 209.322 65.161 209.322 61.221 L 209.322 57.280 202.596 57.280 L 195.870 57.280 195.821 32.148 C 195.794 18.325,195.796 6.043,195.826 4.853 L 195.880 2.691 202.890 2.691 L 209.899 2.691 209.901 11.389 M175.300 23.162 L 175.300 41.326 174.531 41.326 L 173.763 41.326 173.763 23.162 L 173.763 4.998 174.531 4.998 L 175.300 4.998 175.300 23.162 M193.176 32.455 L 193.176 59.913 195.225 60.038 C 196.351 60.107,199.378 60.163,201.952 60.163 L 206.631 60.163 206.631 61.221 L 206.631 62.278 204.277 62.275 C 202.982 62.274,198.808 62.281,195.002 62.290 C 191.197 62.300,184.861 62.301,180.923 62.293 L 173.763 62.278 173.763 61.221 L 173.763 60.163 180.364 60.163 C 183.995 60.163,188.017 60.107,189.303 60.038 L 191.641 59.912 191.639 32.695 C 191.637 17.726,191.637 5.370,191.637 5.238 C 191.638 5.086,191.921 4.998,192.407 4.998 L 193.176 4.998 193.176 32.455 M7.400 137.586 C 7.400 269.536,7.401 269.695,7.785 269.787 C 7.996 269.838,56.391 269.855,115.329 269.827 L 222.489 269.774 222.538 227.054 L 222.586 184.334 223.567 184.334 L 224.547 184.334 224.471 228.098 C 224.418 258.640,224.333 271.882,224.191 271.930 C 224.080 271.967,174.196 272.016,113.340 272.039 L 2.691 272.081 2.689 241.326 C 2.687 214.569,2.688 6.279,2.690 5.616 C 2.691 5.427,3.232 5.383,5.046 5.424 L 7.400 5.478 7.400 137.586 M32.336 12.686 L 32.388 19.991 21.240 19.990 L 10.091 19.990 10.091 12.686 L 10.091 5.382 21.187 5.382 L 32.283 5.382 32.336 12.686 M19.894 21.624 L 19.894 22.201 15.041 22.297 L 10.187 22.393 10.187 21.669 L 10.187 20.945 15.041 20.996 L 19.894 21.048 19.894 21.624 M32.292 21.624 L 32.292 22.297 27.439 22.297 L 22.585 22.297 22.585 21.624 L 22.585 20.951 27.439 20.951 L 32.292 20.951 32.292 21.624 M19.868 23.635 C 19.962 23.729,19.983 24.029,19.915 24.301 L 19.791 24.796 14.932 24.796 L 10.073 24.796 10.082 24.075 L 10.091 23.354 14.894 23.409 C 17.535 23.439,19.773 23.541,19.868 23.635 M32.321 24.075 L 32.252 24.796 27.419 24.796 L 22.585 24.796 22.619 24.075 C 22.638 23.679,22.660 23.354,22.667 23.354 C 22.675 23.354,24.866 23.354,27.535 23.354 L 32.389 23.354 32.321 24.075 M19.874 26.061 C 20.285 27.132,20.420 27.102,15.041 27.102 L 10.091 27.102 10.091 26.430 L 10.091 25.757 14.924 25.757 C 19.154 25.757,19.772 25.795,19.874 26.061 M32.329 26.430 L 32.407 27.102 27.496 27.102 L 22.585 27.102 22.585 26.430 L 22.585 25.757 27.418 25.757 L 32.250 25.757 32.329 26.430 M19.960 28.887 L 19.918 29.505 15.028 29.464 L 10.137 29.422 10.098 28.791 L 10.060 28.160 15.031 28.214 L 20.002 28.268 19.960 28.887 M32.292 28.345 C 32.292 28.402,32.292 28.686,32.292 28.976 L 32.292 29.505 27.434 29.505 L 22.577 29.505 22.577 28.832 L 22.577 28.160 27.434 28.201 C 30.106 28.224,32.292 28.289,32.292 28.345 M19.828 30.706 C 19.845 30.786,19.875 31.088,19.896 31.379 L 19.933 31.908 15.012 31.908 L 10.091 31.908 10.091 31.235 L 10.091 30.562 14.945 30.562 C 17.614 30.562,19.812 30.627,19.828 30.706 M32.388 31.235 L 32.388 31.908 27.487 31.908 L 22.585 31.908 22.585 31.235 L 22.585 30.562 27.487 30.562 L 32.388 30.562 32.388 31.235 M15.297 33.061 L 19.990 33.061 19.987 33.494 C 19.982 34.291,19.859 34.310,14.889 34.310 L 10.076 34.310 10.084 33.588 C 10.089 33.068,10.163 32.893,10.347 32.963 C 10.488 33.017,12.715 33.061,15.297 33.061 M32.324 33.583 L 32.252 34.202 27.414 34.256 L 22.576 34.310 22.576 33.638 L 22.577 32.965 27.486 32.965 L 32.396 32.965 32.324 33.583 M19.798 36.040 L 19.798 36.713 14.945 36.713 L 10.091 36.713 10.091 36.040 L 10.091 35.368 14.945 35.368 L 19.798 35.368 19.798 36.040 M32.329 36.040 L 32.407 36.713 27.496 36.713 L 22.585 36.713 22.585 36.040 L 22.585 35.368 27.418 35.368 L 32.250 35.368 32.329 36.040 M19.911 38.154 C 20.171 39.189,20.189 39.185,15.244 39.200 C 10.274 39.214,10.282 39.215,10.151 38.299 L 10.062 37.674 14.926 37.674 L 19.791 37.674 19.911 38.154 M32.328 38.341 C 32.432 39.235,32.560 39.212,27.423 39.209 C 22.571 39.206,22.586 39.209,22.583 38.299 L 22.582 37.674 27.416 37.674 L 32.250 37.674 32.328 38.341 M19.957 40.846 L 19.912 41.519 15.071 41.519 L 10.229 41.519 10.151 40.846 L 10.072 40.173 15.037 40.173 L 20.002 40.173 19.957 40.846 M32.329 40.846 L 32.250 41.519 27.418 41.519 L 22.585 41.519 22.585 40.846 L 22.585 40.173 27.496 40.173 L 32.407 40.173 32.329 40.846 M19.894 42.864 C 20.231 43.924,20.220 43.926,14.947 43.867 L 10.091 43.813 10.091 43.146 L 10.091 42.480 14.932 42.480 C 19.603 42.480,19.777 42.493,19.894 42.864 M32.388 43.152 L 32.388 43.825 27.487 43.825 L 22.585 43.825 22.585 43.152 L 22.585 42.480 27.487 42.480 L 32.388 42.480 32.388 43.152 M19.791 45.066 C 19.930 45.233,19.982 45.561,19.914 45.834 L 19.794 46.310 14.991 46.310 L 10.187 46.310 10.187 45.852 C 10.187 45.600,10.137 45.263,10.075 45.103 C 9.907 44.662,19.427 44.627,19.791 45.066 M32.186 45.026 C 32.227 45.159,32.313 45.506,32.377 45.799 L 32.493 46.330 27.546 46.279 L 22.599 46.228 22.592 45.651 C 22.588 45.334,22.672 45.011,22.778 44.933 C 23.136 44.670,32.103 44.758,32.186 45.026 M229.313 50.553 L 229.313 53.820 228.640 53.820 L 227.967 53.820 227.967 50.553 L 227.967 47.285 228.640 47.285 L 229.313 47.285 229.313 50.553 M231.812 50.553 L 231.812 53.820 231.139 53.820 L 230.466 53.820 230.466 50.553 L 230.466 47.285 231.139 47.285 L 231.812 47.285 231.812 50.553 M234.118 50.553 L 234.118 53.820 233.445 53.820 L 232.773 53.820 232.773 50.553 L 232.773 47.285 233.445 47.285 L 234.118 47.285 234.118 50.553 M236.617 50.532 L 236.617 53.780 235.896 53.849 L 235.175 53.918 235.232 50.601 L 235.289 47.285 235.953 47.285 L 236.617 47.285 236.617 50.532 M238.924 50.553 L 238.924 53.820 238.251 53.820 L 237.578 53.820 237.578 50.553 L 237.578 47.285 238.251 47.285 L 238.924 47.285 238.924 50.553 M241.422 50.553 L 241.422 53.820 240.750 53.820 L 240.077 53.820 240.077 50.553 L 240.077 47.285 240.750 47.285 L 241.422 47.285 241.422 50.553 M243.152 50.553 C 243.152 53.692,243.137 53.820,242.768 53.820 C 242.399 53.820,242.383 53.692,242.383 50.553 C 242.383 47.413,242.399 47.285,242.768 47.285 C 243.137 47.285,243.152 47.413,243.152 50.553 M280.058 56.701 L 336.857 56.704 336.857 57.809 L 336.857 58.914 280.682 58.865 L 224.507 58.817 224.502 68.476 C 224.499 73.789,224.497 88.840,224.497 101.922 L 224.498 125.709 223.565 125.709 L 222.633 125.709 222.491 120.231 L 222.349 114.753 207.089 114.753 L 191.829 114.753 191.878 96.060 L 191.927 77.367 193.609 77.311 L 195.291 77.256 195.291 95.235 L 195.291 113.215 208.813 113.215 L 222.336 113.215 222.460 111.629 C 222.621 109.553,222.620 85.282,222.458 72.401 L 222.330 62.278 221.112 62.278 L 219.894 62.278 219.894 61.221 L 219.894 60.163 221.144 60.163 L 222.393 60.163 222.393 58.315 C 222.393 56.492,222.399 56.468,222.826 56.582 C 223.063 56.646,248.818 56.699,280.058 56.701 M237.377 63.047 C 237.780 63.840,238.628 65.569,239.261 66.891 C 241.206 70.949,242.584 73.832,243.394 75.541 C 243.820 76.439,244.891 78.658,245.775 80.472 C 246.658 82.285,247.381 83.821,247.381 83.884 C 247.381 83.947,242.840 83.998,237.290 83.998 L 227.198 83.998 227.198 72.750 L 227.198 61.502 231.921 61.554 L 236.644 61.605 237.377 63.047 M239.029 62.759 C 239.039 64.239,239.063 64.216,238.585 63.191 C 237.877 61.670,237.867 61.509,238.478 61.510 C 239.015 61.511,239.020 61.521,239.029 62.759 M241.417 65.305 L 241.411 69.101 240.814 67.756 C 240.486 67.016,240.164 66.389,240.099 66.363 C 240.034 66.336,240.007 65.234,240.040 63.912 L 240.099 61.509 240.761 61.509 L 241.422 61.509 241.417 65.305 M243.772 67.612 C 243.801 70.968,243.761 73.780,243.683 73.860 C 243.604 73.940,243.582 73.948,243.633 73.878 C 243.684 73.808,243.642 73.649,243.539 73.525 C 242.639 72.441,242.383 70.830,242.383 66.246 C 242.383 61.437,242.371 61.509,243.179 61.509 L 243.718 61.509 243.772 67.612 M246.217 70.303 L 246.207 79.097 245.593 77.847 L 244.978 76.598 244.924 69.053 L 244.869 61.509 245.549 61.509 L 246.228 61.509 246.217 70.303 M248.579 72.561 C 248.607 78.640,248.584 83.614,248.528 83.614 C 248.471 83.614,248.168 83.073,247.855 82.412 L 247.285 81.211 247.335 71.360 L 247.385 61.509 247.956 61.509 L 248.528 61.509 248.579 72.561 M251.033 72.753 L 251.033 83.998 250.363 83.998 L 249.694 83.998 249.643 72.753 L 249.592 61.509 250.312 61.509 L 251.033 61.509 251.033 72.753 M253.340 72.753 L 253.340 83.998 252.667 83.998 L 251.994 83.998 251.994 72.753 L 251.994 61.509 252.667 61.509 L 253.340 61.509 253.340 72.753 M255.839 72.753 L 255.839 83.998 255.166 83.998 L 254.493 83.998 254.493 72.753 L 254.493 61.509 255.166 61.509 L 255.839 61.509 255.839 72.753 M305.815 62.953 L 305.815 64.200 307.160 64.200 L 308.506 64.200 308.506 62.902 L 308.505 61.605 322.633 61.656 L 336.761 61.706 336.761 71.314 L 336.761 80.923 338.203 80.923 L 339.644 80.923 339.644 74.003 L 339.644 67.083 345.714 67.083 L 351.783 67.083 351.748 67.612 C 351.729 67.902,351.722 73.957,351.734 81.067 L 351.754 93.993 355.310 93.993 L 358.866 93.993 358.866 97.934 L 358.866 101.874 349.207 101.874 L 339.548 101.874 339.609 96.011 C 339.658 91.290,339.620 90.131,339.417 90.068 C 338.972 89.929,327.353 89.767,317.780 89.766 L 308.506 89.765 308.506 81.403 L 308.506 73.042 307.160 73.042 L 305.815 73.042 305.815 81.506 L 305.815 89.970 304.853 89.843 L 303.892 89.715 303.892 91.185 L 303.892 92.655 308.842 92.603 C 311.564 92.575,318.960 92.573,325.276 92.600 L 336.761 92.648 336.761 98.510 L 336.761 104.373 363.575 104.373 L 390.389 104.373 390.391 105.766 C 390.395 107.809,390.395 134.306,390.392 137.963 L 390.389 141.086 355.679 141.086 L 320.968 141.086 321.032 142.432 L 321.096 143.778 315.954 143.777 L 310.812 143.777 310.812 124.171 L 310.812 104.565 303.508 104.565 L 296.204 104.565 296.204 97.261 L 296.204 89.957 294.858 89.957 L 293.513 89.957 293.513 97.261 L 293.513 104.565 287.172 104.565 L 280.831 104.565 280.781 97.790 C 280.753 94.063,280.753 84.397,280.781 76.309 L 280.831 61.605 293.323 61.656 L 305.815 61.707 305.815 62.953 M278.181 74.099 L 278.130 86.497 267.465 86.497 L 256.800 86.497 256.800 74.099 L 256.800 61.701 267.516 61.701 L 278.232 61.701 278.181 74.099 M354.061 80.058 L 354.061 93.032 353.388 93.032 L 352.715 93.032 352.715 80.058 L 352.715 67.083 353.388 67.083 L 354.061 67.083 354.061 80.058 M356.557 80.058 L 356.564 93.032 355.793 93.032 L 355.022 93.032 355.022 80.058 L 355.022 67.083 355.785 67.083 L 356.549 67.083 356.557 80.058 M358.819 80.106 L 358.869 93.032 358.195 93.032 L 357.520 93.032 357.520 80.045 L 357.520 67.059 358.145 67.119 L 358.770 67.179 358.819 80.106 M148.967 75.156 L 148.967 75.925 104.953 75.925 L 60.938 75.925 60.934 96.108 L 60.930 116.290 62.277 116.290 L 63.623 116.290 63.623 97.452 L 63.623 78.614 108.169 78.616 C 132.669 78.617,152.823 78.617,152.955 78.617 C 153.108 78.616,153.196 78.333,153.196 77.842 L 153.196 77.068 161.797 77.121 L 170.399 77.174 170.448 96.828 L 170.497 116.482 171.745 116.482 L 172.994 116.482 172.994 103.748 C 172.995 96.744,173.016 87.273,173.042 82.701 L 173.090 74.387 161.028 74.387 L 148.967 74.387 148.967 75.156 M207.304 78.136 L 207.304 78.712 202.451 78.808 L 197.597 78.904 197.597 78.180 L 197.597 77.456 202.451 77.508 L 207.304 77.559 207.304 78.136 M219.702 78.136 L 219.702 78.808 214.849 78.808 L 209.995 78.808 209.995 78.136 L 209.995 77.463 214.849 77.463 L 219.702 77.463 219.702 78.136 M19.222 80.930 L 19.222 82.845 14.717 82.845 L 10.213 82.845 10.152 80.934 L 10.091 79.023 14.656 79.019 L 19.222 79.015 19.222 80.930 M45.855 79.159 C 45.956 79.232,46.036 80.830,46.036 82.797 C 46.036 84.726,46.036 86.312,46.036 86.321 C 46.036 86.429,42.136 86.498,41.380 86.404 L 40.365 86.277 40.365 82.680 L 40.365 79.083 43.020 79.056 C 44.480 79.041,45.756 79.087,45.855 79.159 M207.278 80.146 C 207.372 80.241,207.393 80.540,207.325 80.812 L 207.201 81.307 202.342 81.307 L 197.482 81.307 197.492 80.586 L 197.501 79.865 202.304 79.920 C 204.945 79.950,207.183 80.052,207.278 80.146 M219.730 80.586 L 219.662 81.307 214.828 81.307 L 209.995 81.307 210.029 80.586 C 210.048 80.190,210.070 79.865,210.077 79.865 C 210.085 79.865,212.276 79.865,214.945 79.865 L 219.799 79.865 219.730 80.586 M207.284 82.572 C 207.694 83.643,207.830 83.614,202.451 83.614 L 197.501 83.614 197.501 82.941 L 197.501 82.268 202.334 82.268 C 206.564 82.268,207.182 82.306,207.284 82.572 M219.739 82.941 L 219.817 83.614 214.906 83.614 L 209.995 83.614 209.995 82.941 L 209.995 82.268 214.828 82.268 L 219.660 82.268 219.739 82.941 M244.306 82.856 C 244.306 82.968,244.225 83.010,244.127 82.949 C 244.028 82.888,243.905 82.908,243.852 82.994 C 243.680 83.272,244.466 83.211,244.701 82.928 C 244.883 82.708,244.866 82.653,244.617 82.653 C 244.446 82.653,244.306 82.744,244.306 82.856 M219.702 85.296 L 219.702 85.920 214.849 85.920 L 209.995 85.919 209.983 85.295 L 209.970 84.671 214.836 84.671 L 219.702 84.671 219.702 85.296 M207.365 85.296 L 207.304 85.824 202.333 85.875 C 197.843 85.922,197.373 85.897,197.479 85.619 C 197.544 85.450,197.597 85.189,197.597 85.040 C 197.597 84.811,198.397 84.767,202.512 84.767 L 207.426 84.767 207.365 85.296 M254.301 97.744 L 254.301 108.794 240.846 108.794 C 233.445 108.794,227.346 108.772,227.291 108.746 C 227.237 108.719,227.172 103.724,227.147 97.645 L 227.102 86.593 240.702 86.644 L 254.301 86.694 254.301 97.744 M207.208 87.644 L 207.208 88.214 202.417 88.268 L 197.627 88.323 197.549 87.793 C 197.439 87.040,197.212 87.074,202.435 87.074 L 207.208 87.074 207.208 87.644 M219.702 87.650 L 219.702 88.227 214.919 88.227 L 210.136 88.227 210.045 87.751 C 209.912 87.053,209.766 87.074,214.929 87.074 L 219.702 87.074 219.702 87.650 M278.328 88.131 L 278.328 88.803 267.564 88.803 L 256.800 88.803 256.800 88.131 L 256.800 87.458 267.564 87.458 L 278.328 87.458 278.328 88.131 M202.673 89.572 L 207.334 89.572 207.249 90.152 L 207.163 90.732 202.356 90.681 L 197.548 90.630 197.498 89.992 C 197.459 89.499,197.512 89.380,197.731 89.464 C 197.886 89.524,200.110 89.572,202.673 89.572 M219.702 90.155 L 219.702 90.726 214.849 90.726 L 209.995 90.726 209.995 90.101 L 209.995 89.476 214.849 89.531 L 219.702 89.585 219.702 90.155 M278.328 90.630 L 278.328 91.302 267.564 91.302 L 256.800 91.302 256.800 90.630 L 256.800 89.957 267.564 89.957 L 278.328 89.957 278.328 90.630 M207.239 92.504 L 207.312 93.128 202.454 93.032 C 199.782 92.979,197.597 92.871,197.597 92.792 C 197.597 92.713,197.597 92.475,197.597 92.263 C 197.597 91.889,197.725 91.879,202.382 91.879 L 207.166 91.879 207.239 92.504 M219.702 92.456 L 219.702 93.032 214.897 93.032 L 210.091 93.032 210.091 92.456 L 210.091 91.879 214.897 91.879 L 219.702 91.879 219.702 92.456 M278.328 92.936 L 278.328 93.609 267.564 93.609 L 256.800 93.609 256.800 92.936 L 256.800 92.263 267.564 92.263 L 278.328 92.263 278.328 92.936 M207.208 94.756 L 207.208 95.326 202.403 95.380 C 198.022 95.430,197.597 95.407,197.597 95.114 C 197.597 94.938,197.545 94.657,197.481 94.490 C 197.376 94.217,197.877 94.185,202.286 94.185 L 207.208 94.185 207.208 94.756 M219.702 94.810 L 219.702 95.435 214.849 95.435 L 209.995 95.435 209.995 94.810 L 209.995 94.185 214.849 94.185 L 219.702 94.185 219.702 94.810 M278.328 95.435 L 278.328 96.108 267.564 96.108 L 256.800 96.108 256.800 95.435 L 256.800 94.762 267.564 94.762 L 278.328 94.762 278.328 95.435 M207.249 97.261 L 207.334 97.838 202.498 97.838 C 197.268 97.838,197.418 97.858,197.551 97.160 L 197.642 96.684 202.403 96.684 L 207.164 96.684 207.249 97.261 M219.702 97.261 L 219.702 97.838 214.897 97.838 L 210.091 97.838 210.091 97.261 L 210.091 96.684 214.897 96.684 L 219.702 96.684 219.702 97.261 M278.328 97.741 L 278.328 98.414 267.564 98.414 L 256.800 98.414 256.800 97.741 L 256.800 97.069 267.564 97.069 L 278.328 97.069 278.328 97.741 M207.208 99.616 L 207.208 100.240 202.351 100.240 L 197.493 100.240 197.566 99.616 L 197.639 98.991 202.424 98.991 L 207.208 98.991 207.208 99.616 M219.702 99.561 L 219.702 100.132 214.849 100.186 L 209.995 100.240 209.995 99.616 L 209.995 98.991 214.849 98.991 L 219.702 98.991 219.702 99.561 M278.328 100.240 L 278.328 100.913 267.564 100.913 L 256.800 100.913 256.800 100.240 L 256.800 99.568 267.564 99.568 L 278.328 99.568 278.328 100.240 M207.172 102.018 L 207.232 102.643 202.415 102.643 L 197.597 102.643 197.597 102.098 C 197.597 101.277,197.534 101.287,202.486 101.342 L 207.112 101.394 207.172 102.018 M219.666 102.018 L 219.726 102.643 214.831 102.643 L 209.935 102.643 210.030 102.210 C 210.083 101.973,210.159 101.668,210.200 101.534 C 210.258 101.344,211.304 101.302,214.940 101.342 L 219.606 101.394 219.666 102.018 M278.328 102.547 L 278.328 103.220 267.564 103.220 L 256.800 103.220 256.800 102.547 L 256.800 101.874 267.564 101.874 L 278.328 101.874 278.328 102.547 M219.610 104.995 C 219.386 105.156,210.649 105.196,210.238 105.038 C 210.061 104.971,209.997 104.738,210.051 104.369 L 210.134 103.803 214.870 103.752 L 219.606 103.700 219.706 104.277 C 219.761 104.594,219.718 104.917,219.610 104.995 M207.304 104.469 L 207.304 105.046 202.885 105.103 C 197.713 105.170,197.597 105.154,197.597 104.366 L 197.597 103.790 202.451 103.841 L 207.304 103.892 207.304 104.469 M278.328 104.950 L 278.328 105.718 267.564 105.718 L 256.800 105.718 256.800 104.950 L 256.800 104.181 267.564 104.181 L 278.328 104.181 278.328 104.950 M395.406 105.863 C 395.416 106.682,395.454 144.479,395.489 189.856 L 395.553 272.360 337.998 272.367 L 280.442 272.373 280.442 271.218 L 280.442 270.062 317.203 270.051 C 337.422 270.045,362.787 269.997,373.570 269.945 L 393.176 269.849 393.237 263.276 C 393.270 259.661,393.239 255.385,393.169 253.773 L 393.040 250.842 336.405 250.843 C 305.255 250.843,279.683 250.843,279.577 250.842 C 279.401 250.841,279.322 232.002,279.441 218.597 L 279.481 214.128 280.507 214.128 L 281.533 214.128 281.660 220.791 C 281.730 224.455,281.788 232.197,281.788 237.994 L 281.788 248.534 324.123 248.535 C 347.407 248.536,371.864 248.538,378.472 248.541 C 385.079 248.543,391.113 248.543,391.879 248.540 L 393.273 248.534 393.270 179.289 C 393.269 141.204,393.269 108.767,393.270 107.208 L 393.272 104.373 394.330 104.373 L 395.387 104.373 395.406 105.863 M207.367 106.776 L 207.322 107.448 202.481 107.448 L 197.639 107.448 197.561 106.776 L 197.482 106.103 202.447 106.103 L 207.412 106.103 207.367 106.776 M219.739 106.776 L 219.660 107.448 214.828 107.448 L 209.995 107.448 209.995 106.776 L 209.995 106.103 214.906 106.103 L 219.817 106.103 219.739 106.776 M278.328 107.352 L 278.328 108.025 267.564 108.025 L 256.800 108.025 256.800 107.352 L 256.800 106.679 267.564 106.679 L 278.328 106.679 278.328 107.352 M308.313 115.569 C 308.313 120.142,308.256 128.359,308.186 133.830 L 308.058 143.777 307.609 143.777 L 307.160 143.777 307.160 162.614 C 307.160 181.323,307.157 181.451,306.776 181.451 C 306.394 181.451,306.391 181.321,306.386 166.122 C 306.383 157.691,306.329 148.920,306.266 146.631 C 306.203 144.342,306.215 134.546,306.294 124.862 L 306.438 107.256 307.376 107.256 L 308.313 107.256 308.313 115.569 M207.400 109.082 L 207.400 109.755 202.451 109.755 L 197.501 109.755 197.501 109.082 L 197.501 108.409 202.451 108.409 L 207.400 108.409 207.400 109.082 M219.798 109.082 L 219.798 109.755 214.897 109.755 L 209.995 109.755 209.995 109.082 L 209.995 108.409 214.897 108.409 L 219.798 108.409 219.798 109.082 M278.328 109.755 L 278.328 110.524 267.564 110.524 L 256.800 110.524 256.800 109.755 L 256.800 108.986 267.564 108.986 L 278.328 108.986 278.328 109.755 M45.939 126.382 L 45.939 135.704 44.017 135.704 L 42.095 135.704 42.095 126.382 L 42.095 117.059 44.017 117.059 L 45.939 117.059 45.939 126.382 M294.474 137.315 L 294.474 149.113 293.753 149.664 C 293.357 149.967,292.989 150.216,292.936 150.217 C 292.766 150.220,291.315 151.132,290.918 151.485 C 290.706 151.673,290.466 151.828,290.384 151.830 C 290.024 151.839,288.166 153.097,288.268 153.263 C 288.331 153.364,288.289 153.390,288.176 153.320 C 288.062 153.249,287.843 153.318,287.689 153.473 C 287.534 153.627,287.366 153.713,287.316 153.662 C 287.266 153.612,287.115 153.703,286.981 153.864 C 286.848 154.025,286.619 154.157,286.473 154.157 C 286.328 154.157,286.209 154.233,286.209 154.327 C 286.209 154.421,285.884 154.650,285.488 154.836 C 285.091 155.022,284.724 155.227,284.671 155.290 C 284.618 155.354,284.272 155.573,283.902 155.776 C 283.532 155.979,283.186 156.196,283.133 156.257 C 283.002 156.408,282.393 156.774,281.643 157.153 C 281.300 157.326,281.019 157.545,281.019 157.638 C 281.019 157.732,280.921 157.809,280.802 157.809 C 280.683 157.809,279.859 158.263,278.971 158.818 C 278.083 159.373,277.207 159.915,277.025 160.022 C 275.315 161.027,274.868 161.329,274.868 161.479 C 274.868 161.575,274.803 161.638,274.724 161.620 C 274.529 161.574,273.523 162.070,273.522 162.212 C 273.521 162.275,273.046 162.582,272.464 162.896 C 271.883 163.209,271.408 163.534,271.408 163.617 C 271.408 163.700,271.284 163.767,271.133 163.767 C 270.982 163.767,270.744 163.877,270.605 164.010 C 270.465 164.143,270.113 164.358,269.822 164.486 C 269.531 164.615,269.294 164.809,269.294 164.917 C 269.294 165.025,269.174 165.113,269.029 165.113 C 268.883 165.113,268.657 165.242,268.527 165.399 C 268.396 165.557,268.215 165.640,268.125 165.584 C 268.035 165.528,267.851 165.659,267.716 165.874 C 267.493 166.231,267.277 166.266,265.307 166.266 L 263.143 166.266 263.143 165.305 L 263.143 164.344 265.235 164.344 C 267.375 164.344,267.678 164.267,268.845 163.431 C 269.177 163.193,269.506 162.999,269.576 162.999 C 269.646 162.999,269.987 162.782,270.334 162.518 C 270.680 162.254,271.034 162.037,271.120 162.037 C 271.205 162.037,271.543 161.841,271.870 161.601 C 272.198 161.361,272.703 161.044,272.994 160.896 C 273.284 160.748,273.522 160.550,273.522 160.456 C 273.522 160.362,273.609 160.338,273.715 160.404 C 273.820 160.469,273.907 160.431,273.907 160.319 C 273.907 160.207,273.998 160.115,274.110 160.115 C 274.356 160.115,277.406 158.193,277.604 157.912 C 277.682 157.802,277.747 157.776,277.748 157.854 C 277.752 158.024,279.934 156.661,280.026 156.431 C 280.061 156.343,280.212 156.271,280.362 156.271 C 280.512 156.271,280.634 156.179,280.634 156.067 C 280.634 155.956,280.721 155.917,280.827 155.983 C 280.932 156.048,281.019 156.010,281.019 155.898 C 281.019 155.786,281.109 155.694,281.220 155.694 C 281.331 155.694,281.915 155.373,282.518 154.980 C 283.884 154.089,284.226 153.881,284.998 153.480 C 285.337 153.304,285.715 153.038,285.839 152.890 C 285.962 152.741,286.178 152.619,286.319 152.619 C 286.459 152.619,286.643 152.507,286.728 152.370 C 286.812 152.233,287.365 151.880,287.957 151.585 C 288.548 151.290,289.275 150.840,289.572 150.584 C 289.870 150.329,290.233 150.120,290.380 150.120 C 290.527 150.120,290.621 149.970,290.590 149.784 C 290.559 149.599,290.635 149.467,290.760 149.491 C 291.004 149.538,291.558 149.272,292.407 148.701 L 292.936 148.346 292.936 136.931 L 292.936 125.517 293.705 125.517 L 294.474 125.517 294.474 137.315 M60.933 161.461 L 60.936 197.021 62.280 197.021 L 63.623 197.021 63.623 179.145 L 63.623 161.269 99.471 161.269 L 135.320 161.269 135.320 166.362 L 135.320 171.456 140.413 171.456 C 143.215 171.456,145.497 171.391,145.484 171.312 C 145.472 171.233,145.472 168.940,145.484 166.218 L 145.507 161.269 152.138 161.269 L 158.770 161.269 158.770 159.923 L 158.770 158.578 111.197 158.578 L 63.623 158.578 63.623 142.239 L 63.623 125.901 62.277 125.901 L 60.930 125.901 60.933 161.461 M170.495 143.296 L 170.495 160.692 171.744 160.692 C 172.432 160.692,172.994 160.627,172.994 160.548 C 172.996 160.107,172.998 128.988,172.996 127.583 L 172.994 125.901 171.744 125.901 L 170.495 125.901 170.495 143.296 M219.894 144.830 L 219.894 148.382 216.031 148.434 L 212.168 148.486 212.139 156.559 L 212.110 164.632 199.375 164.682 L 186.641 164.731 186.641 161.847 L 186.641 158.962 185.199 158.962 L 183.758 158.962 183.758 179.049 L 183.758 199.135 190.485 199.135 L 197.213 199.135 197.213 197.790 L 197.213 196.444 191.927 196.444 L 186.641 196.444 186.641 181.932 L 186.641 167.420 203.268 167.420 L 219.894 167.420 219.894 168.188 L 219.894 168.957 223.450 168.957 L 227.006 168.957 227.006 155.118 L 227.006 141.278 223.450 141.278 L 219.894 141.278 219.894 144.830 M224.442 146.132 C 224.373 147.321,224.317 152.338,224.316 157.280 L 224.315 166.266 223.450 166.266 L 222.585 166.266 222.585 158.608 C 222.585 154.397,222.528 149.380,222.459 147.460 L 222.332 143.969 223.449 143.969 L 224.566 143.969 224.442 146.132 M219.894 157.905 L 219.894 164.728 217.347 164.728 L 214.801 164.728 214.801 157.905 L 214.801 151.081 217.347 151.081 L 219.894 151.081 219.894 157.905 M142.816 165.017 L 142.816 168.765 140.413 168.765 L 138.011 168.765 138.011 165.017 L 138.011 161.269 140.413 161.269 L 142.816 161.269 142.816 165.017 M260.836 215.185 L 260.836 219.318 257.088 219.318 L 253.340 219.318 253.340 220.663 L 253.340 222.009 258.317 222.009 C 262.678 222.009,263.308 221.971,263.410 221.705 C 263.475 221.537,263.527 219.072,263.527 216.226 L 263.527 211.052 262.182 211.052 L 260.836 211.052 260.836 215.185 M14.032 295.531 L 14.032 304.853 13.567 304.853 C 13.311 304.853,12.987 304.898,12.846 304.952 C 12.635 305.033,12.599 303.411,12.642 295.629 L 12.693 286.209 13.363 286.209 L 14.032 286.209 14.032 295.531 M16.523 295.531 L 16.518 304.853 15.756 304.853 L 14.993 304.853 14.993 295.531 L 14.993 286.209 15.760 286.209 L 16.528 286.209 16.523 295.531 M18.881 294.618 C 18.948 305.455,18.991 304.853,18.154 304.853 L 17.492 304.853 17.471 298.751 C 17.459 295.394,17.453 292.259,17.457 291.783 C 17.461 291.307,17.470 289.858,17.478 288.563 L 17.492 286.209 18.160 286.209 L 18.829 286.209 18.881 294.618 M394.529 292.552 L 395.353 292.552 395.418 293.731 L 395.483 294.910 393.772 294.788 C 392.830 294.721,364.870 294.666,331.638 294.666 L 271.216 294.666 271.216 293.609 L 271.216 292.552 331.908 292.497 C 365.288 292.467,392.848 292.467,393.152 292.497 C 393.456 292.527,394.076 292.552,394.529 292.552 M219.125 293.850 L 219.125 294.954 180.827 294.954 C 139.356 294.954,142.092 294.892,141.053 295.863 C 140.909 295.998,140.489 296.275,140.121 296.480 C 139.753 296.685,138.987 297.161,138.419 297.537 C 137.267 298.300,137.291 298.286,135.416 299.436 C 134.676 299.890,133.551 300.600,132.917 301.013 C 132.283 301.427,131.634 301.828,131.475 301.905 C 130.870 302.198,128.493 303.778,128.432 303.928 C 128.397 304.014,128.272 304.085,128.154 304.085 C 128.036 304.085,127.633 304.288,127.257 304.536 C 125.513 305.688,124.258 306.496,124.075 306.583 C 123.965 306.636,123.400 306.988,122.821 307.365 C 122.242 307.742,121.206 308.385,120.519 308.795 C 119.832 309.204,119.241 309.610,119.206 309.695 C 119.170 309.781,95.189 309.851,65.914 309.851 L 12.686 309.851 12.686 308.794 L 12.686 307.737 16.002 307.738 C 17.826 307.739,41.591 307.717,68.813 307.690 L 118.309 307.641 120.690 306.055 C 121.999 305.183,123.145 304.469,123.236 304.469 C 123.328 304.469,123.402 304.383,123.402 304.277 C 123.402 304.171,123.493 304.085,123.604 304.085 C 123.865 304.085,125.977 302.741,126.062 302.521 C 126.097 302.428,126.194 302.394,126.276 302.445 C 126.359 302.496,126.581 302.367,126.770 302.158 C 126.959 301.949,127.191 301.778,127.285 301.778 C 127.378 301.778,127.992 301.437,128.648 301.021 C 130.208 300.030,132.732 298.437,134.620 297.250 C 135.451 296.727,136.359 296.151,136.638 295.969 C 136.917 295.788,137.401 295.495,137.712 295.320 C 138.418 294.923,141.072 293.221,141.498 292.892 C 141.752 292.696,149.461 292.657,180.470 292.697 L 219.125 292.746 219.125 293.850 M268.717 294.954 L 268.717 297.357 271.360 297.367 C 273.818 297.377,273.973 297.398,273.570 297.679 C 273.333 297.845,273.138 298.081,273.138 298.203 C 273.138 298.325,272.987 298.561,272.802 298.728 C 272.617 298.895,272.292 299.278,272.081 299.579 C 271.869 299.880,271.458 300.401,271.168 300.737 C 270.877 301.073,270.639 301.441,270.639 301.554 C 270.639 301.666,270.530 301.828,270.398 301.913 C 270.265 301.997,269.777 302.585,269.314 303.220 C 268.121 304.853,268.121 304.853,266.085 304.853 L 264.296 304.853 264.296 298.703 L 264.296 292.552 266.506 292.552 L 268.717 292.552 268.717 294.954 M225.853 298.895 L 225.853 305.046 224.160 305.046 C 222.231 305.046,222.213 305.037,221.027 303.412 C 220.564 302.778,220.076 302.189,219.943 302.105 C 219.811 302.020,219.702 301.859,219.702 301.746 C 219.702 301.633,219.464 301.265,219.173 300.929 C 218.883 300.593,218.472 300.072,218.260 299.771 C 218.049 299.470,217.725 299.087,217.540 298.920 C 217.355 298.754,217.203 298.517,217.203 298.395 C 217.203 298.273,217.009 298.037,216.771 297.871 C 216.368 297.590,216.523 297.569,218.981 297.559 L 221.624 297.549 221.624 295.147 L 221.624 292.744 223.739 292.744 L 225.853 292.744 225.853 298.895 M245.603 301.007 L 261.797 301.009 261.797 301.682 L 261.797 302.355 245.171 302.355 L 228.544 302.355 228.544 301.563 C 228.544 300.837,228.579 300.782,228.976 300.888 C 229.214 300.952,236.696 301.005,245.603 301.007 M261.797 304.183 L 261.797 304.859 245.171 304.847 L 228.544 304.836 228.544 304.284 C 228.544 303.496,227.567 303.540,245.411 303.523 L 261.797 303.508 261.797 304.183 M245.475 305.815 L 261.797 305.815 261.797 306.487 L 261.797 307.160 245.171 307.160 L 228.544 307.160 228.544 306.371 C 228.544 305.730,228.601 305.603,228.848 305.698 C 229.015 305.762,236.497 305.815,245.475 305.815 M245.475 308.121 L 261.797 308.121 261.797 308.892 L 261.797 309.663 245.171 309.646 L 228.544 309.630 228.544 308.759 C 228.544 308.044,228.598 307.909,228.848 308.004 C 229.015 308.069,236.497 308.121,245.475 308.121 M261.797 311.341 L 261.797 312.062 245.171 312.011 L 228.544 311.961 228.544 311.291 L 228.544 310.620 245.171 310.620 L 261.797 310.620 261.797 311.341 " stroke="none" fill="#8c8c8c" fill-rule="evenodd"></path><path id="path1" d="M2.563 7.304 C 2.563 8.097,2.597 8.421,2.639 8.025 C 2.680 7.629,2.680 6.980,2.639 6.583 C 2.597 6.187,2.563 6.511,2.563 7.304 M7.400 106.391 C 7.400 160.202,7.422 182.244,7.448 155.374 C 7.475 128.503,7.475 84.477,7.448 57.536 C 7.422 30.596,7.400 52.580,7.400 106.391 M12.734 39.163 C 13.976 39.197,16.009 39.197,17.251 39.163 C 18.494 39.130,17.477 39.102,14.993 39.102 C 12.508 39.102,11.492 39.130,12.734 39.163 M25.132 39.163 C 26.427 39.197,28.546 39.197,29.841 39.163 C 31.136 39.130,30.077 39.103,27.487 39.103 C 24.897 39.103,23.837 39.130,25.132 39.163 M240.992 43.000 C 241.231 43.046,241.577 43.044,241.761 42.996 C 241.945 42.948,241.749 42.910,241.326 42.912 C 240.903 42.915,240.753 42.954,240.992 43.000 M242.816 43.002 C 243.107 43.046,243.582 43.046,243.873 43.002 C 244.164 42.958,243.926 42.922,243.345 42.922 C 242.763 42.922,242.525 42.958,242.816 43.002 M12.638 44.930 C 13.933 44.963,16.052 44.963,17.347 44.930 C 18.642 44.896,17.583 44.869,14.993 44.869 C 12.403 44.869,11.343 44.896,12.638 44.930 M25.132 44.930 C 26.427 44.963,28.546 44.963,29.841 44.930 C 31.136 44.896,30.077 44.869,27.487 44.869 C 24.897 44.869,23.837 44.896,25.132 44.930 M241.309 50.553 C 241.309 52.403,241.338 53.160,241.373 52.235 C 241.409 51.309,241.409 49.796,241.373 48.871 C 241.338 47.946,241.309 48.703,241.309 50.553 M224.403 70.351 C 224.403 74.632,224.428 76.384,224.459 74.243 C 224.490 72.102,224.490 68.599,224.459 66.458 C 224.428 64.318,224.403 66.069,224.403 70.351 M351.652 80.827 C 351.652 87.804,351.676 90.630,351.706 87.108 C 351.735 83.585,351.735 77.876,351.706 74.421 C 351.676 70.967,351.652 73.849,351.652 80.827 M356.458 80.634 C 356.458 87.506,356.482 90.289,356.511 86.819 C 356.541 83.349,356.541 77.727,356.511 74.325 C 356.482 70.924,356.458 73.763,356.458 80.634 M173.082 82.845 C 173.082 87.232,173.107 89.027,173.138 86.833 C 173.169 84.640,173.169 81.050,173.138 78.856 C 173.107 76.663,173.082 78.457,173.082 82.845 M157.389 77.222 C 159.749 77.253,163.555 77.253,165.847 77.222 C 168.139 77.192,166.209 77.167,161.557 77.167 C 156.905 77.167,155.030 77.192,157.389 77.222 M85.761 78.760 C 97.989 78.788,118.056 78.788,130.355 78.760 C 142.653 78.733,132.648 78.711,108.121 78.711 C 83.594 78.711,73.532 78.733,85.761 78.760 M10.526 79.136 C 10.765 79.182,11.111 79.181,11.295 79.133 C 11.479 79.084,11.283 79.047,10.860 79.049 C 10.437 79.051,10.287 79.090,10.526 79.136 M12.257 79.140 C 12.603 79.183,13.122 79.182,13.410 79.138 C 13.699 79.094,13.417 79.059,12.782 79.060 C 12.148 79.061,11.912 79.097,12.257 79.140 M15.714 79.143 C 16.374 79.180,17.456 79.180,18.116 79.143 C 18.777 79.105,18.236 79.075,16.915 79.075 C 15.593 79.075,15.053 79.105,15.714 79.143 M25.997 79.144 C 28.191 79.175,31.780 79.175,33.974 79.144 C 36.168 79.114,34.373 79.088,29.986 79.088 C 25.598 79.088,23.803 79.114,25.997 79.144 M42.726 79.142 C 43.231 79.182,44.009 79.181,44.456 79.141 C 44.902 79.101,44.488 79.068,43.537 79.069 C 42.585 79.069,42.220 79.102,42.726 79.142 M224.406 90.918 C 224.406 97.525,224.430 100.228,224.459 96.925 C 224.489 93.621,224.489 88.215,224.459 84.911 C 224.430 81.607,224.406 84.310,224.406 90.918 M37.756 84.383 C 37.756 86.761,37.784 87.734,37.818 86.545 C 37.851 85.356,37.851 83.409,37.818 82.220 C 37.784 81.031,37.756 82.004,37.756 84.383 M42.528 86.445 C 42.924 86.486,43.573 86.486,43.969 86.445 C 44.366 86.403,44.041 86.369,43.248 86.369 C 42.456 86.369,42.131 86.403,42.528 86.445 M173.085 103.700 C 173.085 110.783,173.109 113.653,173.138 110.077 C 173.167 106.502,173.167 100.706,173.138 97.199 C 173.108 93.691,173.085 96.617,173.085 103.700 M262.134 100.865 C 265.120 100.895,270.007 100.895,272.994 100.865 C 275.980 100.835,273.537 100.811,267.564 100.811 C 261.591 100.811,259.147 100.835,262.134 100.865 M200.048 101.441 C 201.343 101.474,203.462 101.474,204.757 101.441 C 206.052 101.408,204.993 101.381,202.403 101.381 C 199.813 101.381,198.753 101.408,200.048 101.441 M212.542 101.441 C 213.837 101.474,215.956 101.474,217.251 101.441 C 218.546 101.408,217.487 101.381,214.897 101.381 C 212.307 101.381,211.247 101.408,212.542 101.441 M224.386 105.718 C 224.386 106.828,224.418 107.283,224.457 106.728 C 224.496 106.173,224.496 105.264,224.457 104.709 C 224.418 104.154,224.386 104.608,224.386 105.718 M200.144 105.093 C 201.386 105.127,203.419 105.127,204.661 105.093 C 205.903 105.060,204.887 105.032,202.403 105.032 C 199.918 105.032,198.902 105.060,200.144 105.093 M212.542 105.093 C 213.837 105.126,215.956 105.126,217.251 105.093 C 218.546 105.060,217.487 105.033,214.897 105.033 C 212.307 105.033,211.247 105.060,212.542 105.093 M262.134 105.670 C 265.120 105.700,270.007 105.700,272.994 105.670 C 275.980 105.640,273.537 105.616,267.564 105.616 C 261.591 105.616,259.147 105.640,262.134 105.670 M308.209 115.521 C 308.209 120.120,308.234 122.001,308.265 119.702 C 308.296 117.403,308.296 113.640,308.265 111.341 C 308.234 109.041,308.209 110.923,308.209 115.521 M395.448 108.602 C 395.448 109.289,395.483 109.570,395.526 109.226 C 395.569 108.883,395.569 108.321,395.526 107.977 C 395.483 107.633,395.448 107.914,395.448 108.602 M224.360 109.178 C 224.360 109.548,224.399 109.700,224.448 109.515 C 224.496 109.330,224.496 109.027,224.448 108.842 C 224.399 108.657,224.360 108.808,224.360 109.178 M261.941 110.476 C 264.822 110.506,269.536 110.506,272.417 110.476 C 275.298 110.446,272.941 110.421,267.179 110.421 C 261.418 110.421,259.061 110.446,261.941 110.476 M224.402 118.885 C 224.402 122.691,224.428 124.275,224.459 122.406 C 224.490 120.536,224.491 117.422,224.459 115.486 C 224.428 113.550,224.402 115.079,224.402 118.885 M39.492 123.210 C 39.492 127.492,39.517 129.243,39.548 127.102 C 39.579 124.962,39.579 121.458,39.548 119.318 C 39.517 117.177,39.492 118.928,39.492 123.210 M173.062 127.535 C 173.061 128.486,173.094 128.900,173.134 128.454 C 173.175 128.008,173.175 127.229,173.135 126.724 C 173.096 126.218,173.063 126.583,173.062 127.535 M308.190 128.784 C 308.190 129.789,308.223 130.199,308.262 129.697 C 308.302 129.195,308.302 128.373,308.262 127.871 C 308.223 127.369,308.190 127.780,308.190 128.784 M173.085 144.834 C 173.085 153.292,173.109 156.723,173.138 152.460 C 173.167 148.197,173.167 141.278,173.138 137.083 C 173.109 132.889,173.085 136.377,173.085 144.834 M395.459 131.956 C 395.459 133.119,395.491 133.570,395.529 132.958 C 395.567 132.346,395.567 131.395,395.528 130.844 C 395.490 130.292,395.458 130.793,395.459 131.956 M39.449 133.782 C 39.449 134.152,39.488 134.303,39.537 134.118 C 39.585 133.933,39.585 133.630,39.537 133.445 C 39.488 133.260,39.449 133.412,39.449 133.782 M39.471 136.473 C 39.471 137.371,39.504 137.739,39.545 137.290 C 39.585 136.840,39.585 136.105,39.545 135.656 C 39.504 135.207,39.471 135.574,39.471 136.473 M395.479 159.731 C 395.479 168.664,395.502 172.319,395.531 167.852 C 395.560 163.385,395.560 156.076,395.531 151.610 C 395.502 147.143,395.479 150.798,395.479 159.731 M323.558 144.834 C 323.559 145.469,323.595 145.705,323.638 145.359 C 323.680 145.014,323.680 144.495,323.636 144.206 C 323.592 143.917,323.557 144.200,323.558 144.834 M212.078 150.120 C 212.078 150.913,212.112 151.237,212.153 150.841 C 212.195 150.444,212.195 149.796,212.153 149.399 C 212.112 149.003,212.078 149.327,212.078 150.120 M212.092 155.790 C 212.092 157.588,212.121 158.349,212.156 157.482 C 212.192 156.615,212.192 155.144,212.157 154.214 C 212.121 153.284,212.092 153.993,212.092 155.790 M212.085 161.461 C 212.085 162.571,212.116 163.025,212.155 162.470 C 212.194 161.915,212.194 161.007,212.155 160.452 C 212.116 159.897,212.085 160.351,212.085 161.461 M312.590 160.451 C 314.149 160.484,316.701 160.484,318.260 160.451 C 319.820 160.419,318.544 160.393,315.425 160.393 C 312.307 160.393,311.031 160.419,312.590 160.451 M260.644 165.401 C 260.644 166.018,260.701 166.465,260.771 166.395 C 260.913 166.253,260.884 164.520,260.737 164.373 C 260.686 164.322,260.644 164.785,260.644 165.401 M395.465 183.566 C 395.465 185.310,395.494 186.024,395.530 185.151 C 395.565 184.279,395.565 182.852,395.530 181.980 C 395.494 181.108,395.465 181.821,395.465 183.566 M273.378 181.403 C 278.955 181.431,288.080 181.431,293.657 181.403 C 299.234 181.375,294.671 181.352,283.518 181.352 C 272.364 181.352,267.802 181.375,273.378 181.403 M311.832 181.403 C 312.974 181.437,314.790 181.436,315.868 181.402 C 316.946 181.368,316.012 181.340,313.791 181.340 C 311.571 181.341,310.689 181.369,311.832 181.403 M224.380 185.680 C 224.380 186.473,224.414 186.797,224.455 186.401 C 224.497 186.004,224.497 185.356,224.455 184.959 C 224.414 184.563,224.380 184.887,224.380 185.680 M224.409 218.164 C 224.409 234.921,224.432 241.776,224.459 233.397 C 224.487 225.019,224.487 211.309,224.459 202.931 C 224.432 194.553,224.409 201.408,224.409 218.164 M395.450 198.654 C 395.451 199.395,395.486 199.674,395.527 199.275 C 395.569 198.876,395.568 198.271,395.526 197.929 C 395.483 197.588,395.449 197.914,395.450 198.654 M395.479 219.318 C 395.479 228.779,395.502 232.650,395.531 227.919 C 395.560 223.188,395.560 215.447,395.531 210.716 C 395.502 205.985,395.479 209.856,395.479 219.318 M7.381 207.304 C 7.381 208.890,7.411 209.513,7.447 208.689 C 7.483 207.865,7.483 206.567,7.447 205.806 C 7.410 205.044,7.381 205.718,7.381 207.304 M7.398 239.885 C 7.398 256.112,7.421 262.751,7.448 254.637 C 7.476 246.523,7.476 233.246,7.448 225.132 C 7.421 217.018,7.398 223.657,7.398 239.885 M281.680 239.404 C 281.679 242.259,281.706 243.453,281.739 242.059 C 281.772 240.664,281.772 238.329,281.739 236.869 C 281.706 235.409,281.680 236.550,281.680 239.404 M310.476 245.988 C 324.827 246.015,348.311 246.015,362.662 245.988 C 377.013 245.960,365.272 245.938,336.569 245.938 C 307.866 245.938,296.124 245.960,310.476 245.988 M389.190 245.979 C 389.429 246.025,389.775 246.024,389.959 245.975 C 390.143 245.927,389.947 245.890,389.524 245.892 C 389.101 245.894,388.951 245.933,389.190 245.979 M224.392 251.706 C 224.392 253.292,224.422 253.915,224.458 253.091 C 224.494 252.267,224.494 250.969,224.458 250.207 C 224.421 249.446,224.392 250.120,224.392 251.706 M395.471 258.722 C 395.471 261.523,395.498 262.669,395.530 261.269 C 395.563 259.868,395.563 257.576,395.530 256.175 C 395.498 254.774,395.471 255.920,395.471 258.722 M224.377 258.530 C 224.377 259.217,224.412 259.498,224.454 259.154 C 224.497 258.811,224.497 258.248,224.454 257.905 C 224.412 257.561,224.377 257.842,224.377 258.530 M395.468 268.044 C 395.468 270.264,395.496 271.146,395.530 270.004 C 395.564 268.862,395.564 267.045,395.530 265.967 C 395.496 264.890,395.468 265.824,395.468 268.044 M277.766 271.168 C 277.758 271.934,277.821 272.561,277.908 272.561 C 277.994 272.561,278.031 272.021,277.990 271.360 C 277.883 269.637,277.784 269.551,277.766 271.168 M370.653 270.014 C 374.017 270.044,379.467 270.044,382.763 270.014 C 386.059 269.985,383.306 269.961,376.646 269.961 C 369.986 269.961,367.289 269.985,370.653 270.014 M220.423 272.124 C 220.766 272.166,221.329 272.166,221.672 272.124 C 222.016 272.081,221.735 272.046,221.048 272.046 C 220.360 272.046,220.079 272.081,220.423 272.124 M222.924 272.121 C 223.163 272.167,223.509 272.165,223.693 272.117 C 223.877 272.069,223.681 272.031,223.258 272.033 C 222.835 272.035,222.685 272.075,222.924 272.121 M16.416 289.188 C 16.416 290.879,16.446 291.546,16.481 290.668 C 16.517 289.791,16.517 288.407,16.481 287.593 C 16.445 286.779,16.416 287.496,16.416 289.188 M11.610 289.476 C 11.610 291.115,11.640 291.785,11.676 290.966 C 11.712 290.147,11.712 288.806,11.676 287.987 C 11.640 287.167,11.610 287.838,11.610 289.476 M11.617 297.645 C 11.617 300.500,11.644 301.694,11.676 300.300 C 11.709 298.905,11.709 296.570,11.677 295.110 C 11.644 293.650,11.617 294.791,11.617 297.645 M16.422 297.838 C 16.422 300.692,16.449 301.886,16.482 300.492 C 16.515 299.098,16.515 296.762,16.482 295.302 C 16.449 293.842,16.423 294.983,16.422 297.838 M393.804 294.805 C 394.150 294.848,394.669 294.847,394.958 294.803 C 395.247 294.760,394.964 294.725,394.330 294.726 C 393.695 294.727,393.459 294.763,393.804 294.805 M213.801 295.002 C 214.838 295.036,216.481 295.036,217.454 295.001 C 218.426 294.967,217.578 294.938,215.569 294.938 C 213.561 294.939,212.765 294.967,213.801 295.002 M11.588 303.988 C 11.589 304.517,11.627 304.710,11.671 304.418 C 11.715 304.126,11.714 303.694,11.668 303.457 C 11.623 303.221,11.586 303.460,11.588 303.988 M16.393 303.988 C 16.395 304.517,16.432 304.710,16.476 304.418 C 16.520 304.126,16.519 303.694,16.474 303.457 C 16.428 303.221,16.392 303.460,16.393 303.988 M230.706 304.804 C 231.420 304.841,232.588 304.841,233.301 304.804 C 234.015 304.767,233.431 304.737,232.004 304.737 C 230.577 304.737,229.993 304.767,230.706 304.804 M236.096 304.804 C 236.814 304.841,237.939 304.841,238.595 304.803 C 239.252 304.766,238.664 304.736,237.290 304.736 C 235.915 304.736,235.378 304.767,236.096 304.804 M243.982 304.805 C 246.183 304.836,249.729 304.836,251.863 304.805 C 253.997 304.774,252.196 304.749,247.862 304.749 C 243.527 304.749,241.781 304.774,243.982 304.805 M257.337 304.804 C 258.215 304.840,259.598 304.840,260.413 304.804 C 261.227 304.768,260.509 304.739,258.818 304.739 C 257.126 304.739,256.460 304.769,257.337 304.804 M11.609 309.467 C 11.609 311.000,11.639 311.627,11.676 310.860 C 11.712 310.094,11.712 308.840,11.676 308.073 C 11.639 307.307,11.609 307.934,11.609 309.467 M230.706 309.609 C 231.420 309.646,232.588 309.646,233.301 309.609 C 234.015 309.572,233.431 309.542,232.004 309.542 C 230.577 309.542,229.993 309.572,230.706 309.609 M236.096 309.609 C 236.814 309.646,237.939 309.646,238.595 309.609 C 239.252 309.571,238.664 309.541,237.290 309.541 C 235.915 309.542,235.378 309.572,236.096 309.609 M243.982 309.611 C 246.183 309.641,249.729 309.641,251.863 309.610 C 253.997 309.580,252.196 309.554,247.862 309.554 C 243.527 309.554,241.781 309.580,243.982 309.611 M257.337 309.610 C 258.215 309.645,259.598 309.645,260.413 309.609 C 261.227 309.573,260.509 309.544,258.818 309.544 C 257.126 309.545,256.460 309.574,257.337 309.610 " stroke="none" fill="#8c8c94" fill-rule="evenodd"></path><path id="path2" d="M12.734 46.275 C 13.976 46.309,16.009 46.309,17.251 46.275 C 18.494 46.242,17.477 46.214,14.993 46.214 C 12.508 46.214,11.492 46.242,12.734 46.275 M25.132 46.275 C 26.427 46.309,28.546 46.309,29.841 46.275 C 31.136 46.242,30.077 46.215,27.487 46.215 C 24.897 46.215,23.837 46.242,25.132 46.275 M236.504 50.553 C 236.504 52.403,236.533 53.160,236.568 52.235 C 236.603 51.309,236.603 49.796,236.568 48.871 C 236.533 47.946,236.504 48.703,236.504 50.553 M171.135 61.221 C 171.136 61.961,171.170 62.240,171.212 61.841 C 171.253 61.442,171.253 60.837,171.210 60.495 C 171.168 60.154,171.134 60.481,171.135 61.221 M48.725 112.542 C 48.725 132.311,48.747 140.370,48.775 130.451 C 48.802 120.531,48.802 104.356,48.775 94.507 C 48.747 84.657,48.725 92.773,48.725 112.542 M21.961 79.865 C 21.963 80.288,22.003 80.439,22.048 80.200 C 22.094 79.960,22.093 79.614,22.045 79.431 C 21.996 79.247,21.959 79.443,21.961 79.865 M21.987 83.037 C 21.987 84.358,22.017 84.899,22.055 84.238 C 22.092 83.578,22.092 82.496,22.055 81.836 C 22.017 81.175,21.987 81.716,21.987 83.037 M262.134 96.059 C 265.120 96.089,270.007 96.089,272.994 96.059 C 275.980 96.030,273.537 96.005,267.564 96.005 C 261.591 96.005,259.147 96.030,262.134 96.059 M398.170 118.405 C 398.170 127.444,398.193 131.141,398.222 126.622 C 398.251 122.102,398.251 114.707,398.222 110.187 C 398.193 105.668,398.170 109.366,398.170 118.405 M398.170 159.731 C 398.170 168.876,398.193 172.617,398.222 168.044 C 398.251 163.472,398.251 155.990,398.222 151.418 C 398.193 146.845,398.170 150.586,398.170 159.731 M48.721 170.111 C 48.721 177.458,48.745 180.464,48.775 176.790 C 48.804 173.116,48.804 167.105,48.775 163.431 C 48.745 159.757,48.721 162.763,48.721 170.111 M142.704 164.921 C 142.704 166.982,142.732 167.826,142.767 166.795 C 142.802 165.764,142.802 164.077,142.767 163.047 C 142.732 162.016,142.704 162.859,142.704 164.921 M398.168 190.101 C 398.168 195.863,398.192 198.220,398.222 195.339 C 398.252 192.458,398.252 187.744,398.222 184.863 C 398.192 181.982,398.168 184.339,398.168 190.101 M48.694 193.272 C 48.694 194.012,48.729 194.292,48.771 193.893 C 48.812 193.494,48.812 192.889,48.769 192.547 C 48.727 192.206,48.693 192.532,48.694 193.272 M48.717 203.556 C 48.717 207.098,48.743 208.546,48.774 206.776 C 48.806 205.005,48.806 202.107,48.774 200.336 C 48.743 198.566,48.717 200.014,48.717 203.556 M30.452 203.364 C 30.452 205.637,30.479 206.567,30.513 205.430 C 30.547 204.294,30.547 202.434,30.513 201.297 C 30.479 200.161,30.452 201.091,30.452 203.364 M398.159 267.371 C 398.159 269.539,398.187 270.425,398.221 269.342 C 398.255 268.258,398.255 266.485,398.221 265.401 C 398.187 264.318,398.159 265.204,398.159 267.371 M304.148 267.323 C 318.719 267.351,342.506 267.351,357.007 267.323 C 371.509 267.296,359.587 267.274,330.514 267.274 C 301.442 267.274,289.577 267.296,304.148 267.323 M386.877 267.318 C 387.218 267.360,387.824 267.361,388.223 267.320 C 388.621 267.278,388.342 267.243,387.602 267.242 C 386.862 267.241,386.536 267.276,386.877 267.318 M227.086 270.927 C 227.087 272.936,227.115 273.732,227.150 272.695 C 227.184 271.659,227.184 270.016,227.149 269.043 C 227.115 268.071,227.086 268.919,227.086 270.927 M280.504 271.216 C 280.504 271.903,280.539 272.184,280.581 271.840 C 280.624 271.497,280.624 270.935,280.581 270.591 C 280.539 270.247,280.504 270.529,280.504 271.216 M371.985 272.321 C 376.081 272.350,382.785 272.350,386.881 272.321 C 390.978 272.292,387.626 272.268,379.433 272.268 C 371.240 272.268,367.888 272.292,371.985 272.321 M11.598 280.058 C 11.598 280.851,11.631 281.175,11.673 280.778 C 11.714 280.382,11.714 279.733,11.673 279.337 C 11.631 278.940,11.598 279.265,11.598 280.058 M11.598 285.055 C 11.598 285.848,11.631 286.173,11.673 285.776 C 11.714 285.380,11.714 284.731,11.673 284.334 C 11.631 283.938,11.598 284.262,11.598 285.055 M141.011 290.018 C 140.958 290.105,141.169 290.138,141.481 290.092 C 141.792 290.047,142.047 289.976,142.047 289.935 C 142.047 289.788,141.107 289.864,141.011 290.018 M398.158 293.609 C 398.158 295.617,398.187 296.413,398.221 295.377 C 398.256 294.341,398.256 292.697,398.221 291.725 C 398.186 290.752,398.158 291.600,398.158 293.609 M236.872 300.000 C 241.505 300.029,249.030 300.029,253.594 300.000 C 258.159 299.971,254.368 299.948,245.171 299.948 C 235.973 299.948,232.239 299.971,236.872 300.000 M116.918 307.682 C 117.210 307.727,117.642 307.725,117.879 307.680 C 118.115 307.634,117.876 307.598,117.347 307.599 C 116.819 307.601,116.625 307.638,116.918 307.682 M119.281 312.462 C 118.969 312.690,118.959 312.734,119.221 312.734 C 119.394 312.734,119.592 312.642,119.662 312.529 C 119.866 312.200,119.683 312.167,119.281 312.462 " stroke="none" fill="#949c9c" fill-rule="evenodd"></path><path id="path3" d="M115.976 10.284 C 115.977 11.341,116.009 11.749,116.048 11.190 C 116.087 10.632,116.086 9.767,116.047 9.268 C 116.007 8.769,115.976 9.226,115.976 10.284 M115.987 16.531 C 115.987 18.803,116.015 19.733,116.049 18.597 C 116.083 17.460,116.083 15.601,116.049 14.464 C 116.015 13.328,115.987 14.258,115.987 16.531 M115.992 52.667 C 115.992 56.420,116.018 57.955,116.050 56.079 C 116.081 54.202,116.081 51.132,116.050 49.255 C 116.018 47.379,115.992 48.914,115.992 52.667 M242.467 66.314 C 242.467 68.904,242.494 69.964,242.527 68.669 C 242.560 67.374,242.560 65.255,242.527 63.960 C 242.494 62.665,242.467 63.724,242.467 66.314 M95.099 62.606 C 95.336 62.651,95.726 62.651,95.963 62.606 C 96.201 62.560,96.007 62.522,95.531 62.522 C 95.055 62.522,94.861 62.560,95.099 62.606 M305.670 248.679 C 316.850 248.706,335.144 248.706,346.324 248.679 C 357.504 248.651,348.357 248.629,325.997 248.629 C 303.638 248.629,294.491 248.651,305.670 248.679 M372.273 248.678 C 375.259 248.708,380.147 248.708,383.133 248.678 C 386.120 248.649,383.676 248.624,377.703 248.624 C 371.730 248.624,369.286 248.649,372.273 248.678 M389.476 248.667 C 389.661 248.715,389.964 248.715,390.149 248.667 C 390.334 248.619,390.183 248.579,389.813 248.579 C 389.443 248.579,389.291 248.619,389.476 248.667 M390.248 270.008 C 390.540 270.052,390.972 270.051,391.209 270.006 C 391.445 269.960,391.206 269.924,390.678 269.925 C 390.149 269.927,389.956 269.964,390.248 270.008 " stroke="none" fill="#908c8c" fill-rule="evenodd"></path><path id="path4" d="M353.340 101.825 C 354.370 101.860,356.057 101.860,357.088 101.825 C 358.119 101.791,357.275 101.762,355.214 101.762 C 353.152 101.762,352.309 101.791,353.340 101.825 M361.989 101.825 C 363.232 101.859,365.264 101.859,366.506 101.825 C 367.749 101.792,366.732 101.765,364.248 101.765 C 361.764 101.765,360.747 101.792,361.989 101.825 " stroke="none" fill="#94908c" fill-rule="evenodd"></path></g></svg>